<?xml version="1.0" encoding="UTF-8"?>
<svg version="1.1" xmlns="http://www.w3.org/2000/svg" width="336" height="336">
<path d="M0 0 C2.49365272 -0.00135437 4.98730519 -0.00330123 7.48095703 -0.00579834 C12.65725263 -0.00871341 17.83347829 -0.00457059 23.00976562 0.00488281 C29.55739923 0.01627495 36.10486871 0.00969576 42.65249634 -0.00226212 C47.78687722 -0.00957979 52.92122086 -0.00714803 58.05560303 -0.00200653 C60.46628846 -0.00069722 62.87697758 -0.00221901 65.28765869 -0.00696564 C78.19576908 -0.02682066 91.03277521 0.26351988 103.9140625 1.13769531 C105.0568869 1.2125201 106.1997113 1.28734489 107.37716675 1.3644371 C133.30965872 3.30636526 157.60335499 13.6894058 174.81640625 33.5 C176.25398631 35.37673637 177.57059241 37.29479111 178.875 39.265625 C179.60396484 40.21888672 179.60396484 40.21888672 180.34765625 41.19140625 C185.49224952 48.17805338 188.20809563 56.10040764 190.875 64.265625 C191.26945312 65.45542969 191.66390625 66.64523438 192.0703125 67.87109375 C194.49219279 76.24003563 195.37240145 84.4529482 195.96777344 93.1171875 C196.05312222 94.34533173 196.13847099 95.57347595 196.2264061 96.83883667 C197.05800349 109.69239989 197.16597744 122.51480886 197.140625 135.390625 C197.14197937 137.88427772 197.14392623 140.37793019 197.14642334 142.87158203 C197.14933841 148.04787763 197.14519559 153.22410329 197.13574219 158.40039062 C197.12435005 164.94802423 197.13092924 171.49549371 197.14288712 178.04312134 C197.15020479 183.17750222 197.14777303 188.31184586 197.14263153 193.44622803 C197.14132222 195.85691346 197.14284401 198.26760258 197.14759064 200.67828369 C197.16750033 213.62193619 196.86689131 226.48670872 195.97167969 239.40234375 C195.89266544 240.55826019 195.8136512 241.71417664 195.73224258 242.90512085 C194.0442254 265.11242881 186.16174999 286.31000786 171.2578125 303.0859375 C169.875 304.265625 169.875 304.265625 167.875 304.265625 C167.48828125 305.16667969 167.48828125 305.16667969 167.09375 306.0859375 C160.63027593 317.64561228 140.77048733 323.88511374 129 327.453125 C107.39331894 333.30936205 84.51250312 332.41961115 62.3125 332.3984375 C59.78442373 332.39911323 57.25634753 332.40008549 54.72827148 332.40133667 C49.46044409 332.40280097 44.19262954 332.40079894 38.92480469 332.39599609 C32.89051522 332.39055692 26.85625959 332.39232084 20.82197094 332.3978225 C14.94495963 332.40296013 9.06796086 332.40234938 3.19094849 332.39944077 C0.72258499 332.39878099 -1.74577939 332.39956607 -4.21414185 332.40192032 C-15.39948492 332.41025138 -26.57266556 332.40229188 -37.74609375 331.83544922 C-38.84442787 331.78050891 -38.84442787 331.78050891 -39.96495056 331.72445869 C-62.95740185 330.37825395 -86.57313582 323.77137022 -104.125 308.265625 C-104.47175781 307.56824219 -104.81851563 306.87085938 -105.17578125 306.15234375 C-106.40636211 303.70637439 -107.69663213 303.42978637 -110.125 302.265625 C-136.39005099 274.44146139 -135.28227647 234.24875895 -135.29296875 198.64453125 C-135.2961927 196.0893502 -135.29955757 193.53416933 -135.30305481 190.97898865 C-135.30900794 185.64459737 -135.3109422 180.31022304 -135.31030273 174.97583008 C-135.3097046 168.88886745 -135.3202197 162.80199419 -135.3360464 156.71505409 C-135.35092631 150.77133192 -135.35428465 144.82763579 -135.35369301 138.88389397 C-135.35485456 136.39701918 -135.35917031 133.91014336 -135.36702538 131.42328072 C-135.40420741 118.43431196 -135.15781776 105.52898886 -134.2199707 92.57006836 C-134.14029902 91.46227555 -134.06062735 90.35448275 -133.97854137 89.21312046 C-133.28738425 80.55943625 -131.83330142 72.54198032 -129.125 64.265625 C-128.91359375 63.60030762 -128.7021875 62.93499023 -128.484375 62.24951172 C-122.79985956 44.63825494 -111.90756661 28.4093717 -96.125 18.265625 C-95.36832031 17.76675781 -94.61164063 17.26789062 -93.83203125 16.75390625 C-78.07961548 6.8116025 -60.58902417 2.34404329 -42.1640625 1.13769531 C-40.94381378 1.05488438 -39.72356506 0.97207344 -38.46633911 0.88675308 C-25.64271487 0.07784624 -12.84468249 -0.02529113 0 0 Z M-25 31.640625 C-26.26457031 31.67140137 -27.52914062 31.70217773 -28.83203125 31.73388672 C-51.02884387 32.47275852 -72.06904253 35.85684438 -88.05859375 52.76171875 C-102.03832133 69.70123742 -103.27643804 90.97029962 -103.7421875 112.015625 C-103.77995754 113.48844768 -103.81787443 114.96126661 -103.85592651 116.43408203 C-104.22463526 131.52921944 -104.27814042 146.62568036 -104.25537109 161.72460938 C-104.24967455 165.50833518 -104.25308699 169.29199066 -104.25879288 173.07571411 C-104.27825938 188.16547677 -104.18780957 203.25155003 -103.79806137 218.33685303 C-103.76171106 219.75431401 -103.72766503 221.1718366 -103.69629288 222.5894165 C-103.19478313 244.47679715 -101.00993235 265.79360124 -85.375 282.515625 C-68.52179421 298.2732113 -47.00575761 300.35506184 -25 300.890625 C-24.31244629 300.908974 -23.62489258 300.927323 -22.91650391 300.94622803 C13.57657405 301.89081405 50.25824286 301.86449396 86.75 300.890625 C88.01457031 300.85984863 89.27914062 300.82907227 90.58203125 300.79736328 C111.34849 300.10610409 131.31203371 297.3005973 147.125 282.515625 C162.8825863 265.66241921 164.96443684 244.14638261 165.5 222.140625 C165.518349 221.45307129 165.536698 220.76551758 165.55560303 220.05712891 C166.50018905 183.56405095 166.47386896 146.88238214 165.5 110.390625 C165.46922363 109.12605469 165.43844727 107.86148438 165.40673828 106.55859375 C164.66786648 84.36178113 161.28378062 63.32158247 144.37890625 47.33203125 C127.92820032 33.75570763 107.24765634 32.13948488 86.75 31.640625 C85.71866943 31.6131015 85.71866943 31.6131015 84.66650391 31.58502197 C48.17342595 30.64043595 11.49175714 30.66675604 -25 31.640625 Z " fill="#000000" transform="translate(138.125,2.734375)"/>
<path d="M0 0 C19.27276661 16.49574398 28.44255148 38.46807983 30.66015625 63.4453125 C31.49435027 84.26389358 24.16578192 103.77323026 11.4375 119.9375 C10.75042969 120.81921875 10.06335938 121.7009375 9.35546875 122.609375 C-4.6463884 139.33886666 -25.62908605 149.19303513 -47.0390625 151.625 C-61.88576482 152.94178069 -75.80333304 150.71215624 -89.5625 144.9375 C-91.07263672 144.30714844 -91.07263672 144.30714844 -92.61328125 143.6640625 C-113.30077925 134.18343428 -128.66860906 116.27226696 -136.7355957 95.20385742 C-144.66605431 73.461445 -142.67260981 49.95960804 -133.5625 28.9375 C-123.0662104 6.86905112 -104.27141462 -8.06828299 -81.625 -16.375 C-53.22759447 -25.20890586 -22.80346271 -18.65372779 0 0 Z M-98.38671875 32.015625 C-108.30747143 44.71019014 -111.13999615 59.10900355 -109.5625 74.9375 C-106.62917637 89.99838207 -98.32122569 102.77249966 -85.7265625 111.62890625 C-72.46291382 119.64934363 -58.01038204 122.14820791 -42.8203125 119.21484375 C-28.66385695 115.10114431 -16.29827104 106.73038704 -8.5625 93.9375 C-1.28770362 80.11741329 1.16446542 65.06648018 -3.25 49.875 C-8.44224425 35.48815656 -17.84872257 24.09047982 -31.375 16.75 C-55.27993394 5.74175489 -81.25385049 12.49809627 -98.38671875 32.015625 Z " fill="#000000" transform="translate(224.5625,103.0625)"/>
<path d="M0 0 C4.76955319 2.86553994 8.02008335 7.22041171 10.39453125 12.17578125 C11.81819438 19.76865127 11.23283756 25.6412863 6.95703125 32.17578125 C2.71978641 36.75473939 -2.23429952 39.25955873 -8.390625 40.1796875 C-14.20105008 40.17113017 -19.55706208 38.27962242 -24 34.51953125 C-28.9941847 28.978538 -30.46184895 24.07370625 -30.296875 16.671875 C-29.71817719 10.98283038 -27.13340564 6.15857506 -23.04296875 2.17578125 C-15.53048066 -2.36734396 -8.24500149 -3.4313517 0 0 Z " fill="#000000" transform="translate(267.04296875,61.82421875)"/>
</svg>
