<?xml version="1.0" encoding="UTF-8"?>
<svg version="1.1" xmlns="http://www.w3.org/2000/svg" width="1000" height="1291">
<path d="M0 0 C4.68286838 6.28426378 6.04763636 15.26473172 8.12231445 22.67489624 C19.62249634 63.53863905 37.54400781 102.0013096 64.5078125 135.0234375 C65.16716797 135.83506348 65.16716797 135.83506348 65.83984375 136.66308594 C77.05444663 150.38123044 89.43670983 163.22251142 103.5078125 174.0234375 C104.77027196 175.02510881 106.03193077 176.02778972 107.29296875 177.03125 C143.94674489 205.93200833 186.51384898 224.2743641 231.0859375 237.1484375 C233.22715863 237.77139214 235.36783839 238.3962125 237.5078125 239.0234375 C238.86048218 239.41825317 238.86048218 239.41825317 240.24047852 239.82104492 C246.16161246 241.65090846 249.14738566 243.74438857 252.5078125 249.0234375 C255.01032987 254.02847224 254.91835437 258.69678596 253.5078125 264.0234375 C251.15797638 269.18902553 247.76794128 271.82297494 242.73937376 274.21146435 C238.99603059 275.57351262 235.44513564 275.57281373 231.49724388 275.52680206 C230.62029826 275.53261583 229.74335263 275.53842959 228.8398329 275.54441953 C225.90452698 275.55900467 222.97005919 275.54514109 220.03475952 275.53137207 C217.9078547 275.53598154 215.78095307 275.54233477 213.6540581 275.55028105 C207.81181939 275.56699066 201.96984179 275.55872044 196.1276021 275.54633617 C189.82625585 275.53729489 183.52495485 275.55125078 177.22361755 275.56225586 C165.59418035 275.57902608 153.96484903 275.57755679 142.33540918 275.56660999 C131.59316125 275.55654789 120.85094385 275.55392091 110.10869217 275.55870056 C109.39614424 275.5590061 108.68359632 275.55931164 107.94945603 275.55962644 C105.05701612 275.56087179 102.16457622 275.56214539 99.27213633 275.5634655 C72.14091153 275.57570066 45.00973978 275.56460851 17.87852316 275.54307791 C-6.23010152 275.52409147 -30.33864169 275.52579751 -54.44726562 275.54492188 C-81.53187271 275.56633514 -108.61643293 275.57483703 -135.7010473 275.56247282 C-138.58759776 275.56118994 -141.47414822 275.55993858 -144.3606987 275.55870056 C-145.07144466 275.55838425 -145.78219061 275.55806794 -146.51447433 275.55774205 C-157.25180539 275.55319038 -167.98910261 275.55851647 -178.72642899 275.56861877 C-190.93257237 275.58004575 -203.13859059 275.57683205 -215.34472729 275.5554958 C-221.57530367 275.54496462 -227.80570828 275.54089894 -234.03628349 275.55409241 C-239.7357014 275.56597888 -245.43478769 275.55951549 -251.13417535 275.5381822 C-253.19997482 275.5337003 -255.2658021 275.53601777 -257.33158381 275.54568535 C-260.13255855 275.55779182 -262.93238696 275.54543265 -265.73330116 275.52680206 C-266.5414902 275.53616673 -267.34967924 275.54553139 -268.18235886 275.55517983 C-274.18189864 275.47503533 -277.80045371 273.69599028 -282.13671875 269.390625 C-286.75352583 263.49222933 -287.24024391 259.46185759 -286.4921875 252.0234375 C-283.59580639 246.00787672 -279.03041031 241.95337525 -272.82714844 239.68066406 C-271.46433682 239.32585828 -270.09710014 238.98774322 -268.7265625 238.6640625 C-267.98434448 238.47383011 -267.24212646 238.28359772 -266.47741699 238.08760071 C-264.89105791 237.68145244 -263.30301863 237.28181947 -261.71350098 236.88821411 C-257.51419767 235.84357389 -253.33151192 234.73646855 -249.1484375 233.62890625 C-247.8985202 233.29879799 -247.8985202 233.29879799 -246.62335205 232.96202087 C-174.77070116 213.80719109 -109.46393193 169.66294595 -71.4921875 105.0234375 C-55.37194766 76.27844025 -43.7161282 46.4478723 -35.87475586 14.42358398 C-33.90945844 6.64451323 -31.6784614 0.39769118 -24.4921875 -3.9765625 C-15.26370109 -7.11748594 -7.51561531 -6.28116642 0 0 Z M-15.4921875 68.0234375 C-15.93046875 69.17714844 -16.36875 70.33085937 -16.8203125 71.51953125 C-30.10960613 105.92546944 -47.81235179 138.41999048 -72.4921875 166.0234375 C-73.74902344 167.44462891 -73.74902344 167.44462891 -75.03125 168.89453125 C-80.767151 175.33107162 -80.767151 175.33107162 -83.74609375 178.17578125 C-85.7211372 179.84200759 -85.7211372 179.84200759 -85.4921875 182.0234375 C-86.9771875 182.5184375 -86.9771875 182.5184375 -88.4921875 183.0234375 C-88.4921875 183.6834375 -88.4921875 184.3434375 -88.4921875 185.0234375 C-89.08902344 185.29027344 -89.68585938 185.55710937 -90.30078125 185.83203125 C-92.53793074 187.04830682 -93.83638817 188.22701009 -95.5546875 190.0859375 C-100.18520085 194.83343224 -105.29080636 198.92338447 -110.4921875 203.0234375 C-111.42514648 203.76303711 -111.42514648 203.76303711 -112.37695312 204.51757812 C-126.40250061 215.59325389 -140.91768039 225.34763771 -156.69311523 233.7644043 C-157.40798096 234.14894775 -158.12284668 234.53349121 -158.859375 234.9296875 C-159.80466064 235.42952148 -159.80466064 235.42952148 -160.76904297 235.93945312 C-162.85079994 237.16004033 -162.85079994 237.16004033 -165.4921875 240.0234375 C-65.1721875 240.0234375 35.1478125 240.0234375 138.5078125 240.0234375 C136.10168327 237.61730827 134.76934393 236.4629355 131.91015625 234.96484375 C131.20036621 234.58537598 130.49057617 234.2059082 129.75927734 233.81494141 C128.99566895 233.40937012 128.23206055 233.00379883 127.4453125 232.5859375 C79.59125372 206.53560795 37.57511934 166.37179932 10.60693359 118.95263672 C9.4590602 116.93786649 8.29008761 114.93617196 7.12109375 112.93359375 C-1.19177547 98.50745231 -8.00037666 83.34239707 -14.4921875 68.0234375 C-14.8221875 68.0234375 -15.1521875 68.0234375 -15.4921875 68.0234375 Z " fill="#0e288f" fill-opacity="0.15" transform="translate(507.4921875,393.9765625)"/>
<path d="M0 0 C4.15422393 2.79958569 7.61888159 6.42526317 9.875 10.9375 C10.1484375 13.2578125 10.1484375 13.2578125 10.25 16.0625 C10.29898437 16.97257813 10.34796875 17.88265625 10.3984375 18.8203125 C9.52601771 24.01576767 7.0736768 28.0829132 3.03417969 31.49023438 C0.91916958 32.95062281 -1.23665927 34.29767672 -3.4375 35.625 C-12.5816416 41.42693543 -20.89845537 47.90867155 -29.125 54.9375 C-30.0015625 55.68257812 -30.878125 56.42765625 -31.78125 57.1953125 C-43.89546011 67.8154367 -55.26409489 79.23729428 -64.83935547 92.20751953 C-66.13215281 93.94712492 -67.455075 95.65988094 -68.78515625 97.37109375 C-95.63514047 132.34201036 -111.7765723 174.71751651 -121.34741211 217.44091797 C-123.05275206 222.91621039 -126.50024987 225.93015492 -131.25 228.875 C-137.01069543 230.90593253 -143.78906329 231.15400853 -149.53515625 229.05859375 C-155.28166827 225.80402713 -158.05513808 221.30548765 -160.03027344 215.08764648 C-160.97678074 211.63028019 -161.86814313 208.16190588 -162.75 204.6875 C-178.21014836 145.96304306 -210.27569559 88.40512857 -259.125 50.9375 C-260.14980469 50.13054688 -261.17460937 49.32359375 -262.23046875 48.4921875 C-268.75418708 43.37929434 -275.42581517 38.60334118 -282.34765625 34.04296875 C-286.14468703 31.16448831 -288.61145152 28.47814544 -290.125 23.9375 C-290.85924739 17.05242608 -290.26561216 12.53292184 -286.125 6.9375 C-282.60062469 3.1021504 -278.81857466 1.80812249 -273.77734375 1.0234375 C-263.3469886 0.68548785 -254.62667589 9.46749378 -246.90332031 15.54101562 C-245.46428558 16.67106487 -244.01151735 17.78361143 -242.5546875 18.890625 C-230.3456931 28.17126281 -217.72119552 38.24213242 -207.828125 49.984375 C-206.05704543 52.01542955 -204.18538946 53.87556768 -202.25 55.75 C-197.4655159 60.48865571 -193.26743728 65.63721886 -189.125 70.9375 C-188.67108887 71.515 -188.21717773 72.0925 -187.74951172 72.6875 C-168.29392427 97.58221305 -152.67235959 125.53240216 -141.125 154.9375 C-139.4107769 152.36616536 -138.28066152 150.14086743 -137.09375 147.31640625 C-136.70082764 146.39134277 -136.30790527 145.4662793 -135.90307617 144.51318359 C-135.48131104 143.51883301 -135.0595459 142.52448242 -134.625 141.5 C-124.04439138 116.96219687 -111.48937649 94.12667232 -95.125 72.9375 C-94.44050781 72.0403125 -93.75601563 71.143125 -93.05078125 70.21875 C-88.56132351 64.46350195 -83.69419956 59.10474372 -78.73046875 53.76171875 C-76.56671794 51.41630371 -74.45633717 49.04309284 -72.375 46.625 C-66.76423423 40.17461845 -60.57897364 34.52601242 -54.125 28.9375 C-53.18370239 28.12019409 -53.18370239 28.12019409 -52.22338867 27.28637695 C-43.80174147 20.02976665 -35.12663894 13.35874815 -25.875 7.1875 C-24.98208252 6.59122803 -24.08916504 5.99495605 -23.16918945 5.38061523 C-15.61082773 0.4274914 -9.09632187 -3.09274944 0 0 Z " fill="#0e288f" fill-opacity="0.15" transform="translate(635.125,682.0625)"/>
<path d="M0 0 C4.78771927 2.73968926 7.51299701 6.0257733 9.70703125 11.12890625 C10.07651307 14.01169398 10.24559084 16.50057073 10.20823669 19.37123108 C10.21653829 20.57441684 10.21653829 20.57441684 10.22500759 21.80190939 C10.2385619 24.47511217 10.22367375 27.1473728 10.20874023 29.82055664 C10.21252528 31.74286799 10.21802686 33.66517662 10.22511292 35.58747864 C10.23905954 40.7981609 10.22790362 46.00851267 10.2114017 51.21917653 C10.19753907 56.67496445 10.20401259 62.13073342 10.20753479 67.58653259 C10.21023572 76.74695149 10.19677056 85.90723926 10.17358398 95.06762695 C10.1469671 105.65650137 10.14523014 116.24515668 10.15697235 126.8340531 C10.16775278 137.0242436 10.16156146 147.21435489 10.14741707 157.40453911 C10.14166039 161.73973909 10.14173744 166.07488104 10.14648247 170.41008186 C10.15125607 175.51469336 10.14113456 180.61906502 10.11952782 185.72363091 C10.11396532 187.59651251 10.11348972 189.4694172 10.11848068 191.34230042 C10.12444084 193.89965442 10.11191464 196.45627692 10.0947113 199.01356506 C10.10072135 199.75393904 10.10673139 200.49431302 10.11292356 201.25712258 C10.04519787 206.79698651 8.77170781 210.89060916 4.98828125 214.9921875 C4.40046875 215.47042969 3.81265625 215.94867188 3.20703125 216.44140625 C2.61921875 216.93253906 2.03140625 217.42367187 1.42578125 217.9296875 C-2.69927313 220.80785044 -7.47243468 220.81532534 -12.29296875 220.12890625 C-17.91603602 217.84021922 -21.38421172 214.48101918 -24.29296875 209.12890625 C-25.49419272 205.52523433 -25.43781792 202.23913249 -25.43341064 198.48822021 C-25.43638177 197.7024703 -25.43935289 196.91672038 -25.44241405 196.10715985 C-25.45110821 193.46563493 -25.4526099 190.82415529 -25.45410156 188.18261719 C-25.45872926 186.29207767 -25.46375385 184.40153908 -25.46914673 182.51100159 C-25.48227809 177.36831161 -25.48871722 172.22563469 -25.49315739 167.08293056 C-25.49608714 163.8705242 -25.50019179 160.65812142 -25.50466156 157.44571686 C-25.51833891 147.39650385 -25.5280042 137.34729901 -25.53186345 127.29807734 C-25.53634384 115.69484206 -25.5538899 104.09172461 -25.58286405 92.48852515 C-25.60447752 83.52197266 -25.61456757 74.55545332 -25.61590457 65.58887506 C-25.61695291 60.23258199 -25.6228668 54.87639963 -25.64072418 49.52013397 C-25.65719885 44.48044991 -25.65936326 39.44095986 -25.65058517 34.40125847 C-25.64981446 32.55297514 -25.65416208 30.70468141 -25.66404343 28.85642433 C-25.67675724 26.32989443 -25.67088935 23.80405224 -25.66046143 21.27752686 C-25.66851783 20.54901008 -25.67657423 19.82049331 -25.68487477 19.06990027 C-25.62950022 13.31902421 -24.42746459 8.56417195 -20.57421875 4.16796875 C-19.98640625 3.70132813 -19.39859375 3.2346875 -18.79296875 2.75390625 C-18.20515625 2.27179687 -17.61734375 1.7896875 -17.01171875 1.29296875 C-12.17912005 -1.98001855 -5.3443187 -2.03029484 0 0 Z " fill="#0e288f" fill-opacity="0.15" transform="translate(500.29296875,43.87109375)"/>
<path d="M0 0 C3.47207371 1.9005742 5.63204551 3.95795463 7.8125 7.3125 C8.17036119 7.86256588 8.52822237 8.41263176 8.89692783 8.9793663 C10.21209218 12.33077252 10.09820743 15.59500461 10.08665466 19.14263916 C10.09450968 20.33373798 10.09450968 20.33373798 10.10252339 21.54889941 C10.11753842 24.21266343 10.11822887 26.87623561 10.11889648 29.54003906 C10.12651704 31.44881007 10.13494435 33.357578 10.14411926 35.26634216 C10.16608326 40.45449942 10.1748659 45.64259774 10.17994571 50.83079624 C10.18358747 54.07253533 10.18982664 57.31425893 10.1969471 60.55599213 C10.2214496 71.86659932 10.23449492 83.1771606 10.23803711 94.48779297 C10.24167151 105.02834292 10.27155808 115.56860152 10.31344169 126.10906243 C10.34814375 135.15973415 10.36358555 144.21030933 10.36428314 153.26104712 C10.36507608 158.66605842 10.37382222 164.07077311 10.40228081 169.47571564 C10.42845933 174.56148925 10.43066768 179.64672034 10.41462517 184.73253059 C10.41281043 186.59652705 10.41950361 188.46055469 10.43544388 190.32448387 C10.57607407 207.84019674 10.57607407 207.84019674 4.8125 214.3125 C0.10082951 218.33949658 -4.39923357 218.94781961 -10.53515625 218.6953125 C-16.02572729 217.90285895 -19.12860635 215.6779155 -22.5625 211.25 C-25.12962351 206.60943058 -25.33596553 202.85172371 -25.33467102 197.67854309 C-25.34018605 196.50097656 -25.34018605 196.50097656 -25.3458125 195.29962081 C-25.35685431 192.66043399 -25.36069403 190.02128654 -25.36450195 187.38208008 C-25.37076626 185.49316279 -25.37741303 183.60424673 -25.38441467 181.71533203 C-25.40182799 176.57671094 -25.41237749 171.43809916 -25.4206202 166.29945588 C-25.42576999 163.08905199 -25.43184575 159.87865098 -25.43813133 156.66824913 C-25.45718492 146.62384173 -25.47141533 136.57944169 -25.4797433 126.5350197 C-25.48951532 114.94024966 -25.5158333 103.34567056 -25.55624419 91.7509678 C-25.58640566 82.78949598 -25.60121223 73.82807889 -25.60452431 64.8665573 C-25.60687487 59.51410467 -25.61583608 54.16185597 -25.64098549 48.80945778 C-25.66427147 43.7721924 -25.66849724 38.73526515 -25.65822411 33.6979599 C-25.65772876 31.85170301 -25.66404893 30.00542945 -25.67778015 28.15922356 C-25.69551475 25.63287085 -25.68838575 23.10772956 -25.67524719 20.58137512 C-25.69170106 19.49296923 -25.69170106 19.49296923 -25.70848733 18.38257533 C-25.63215405 12.27678242 -23.7166974 6.8743322 -19.37109375 2.47265625 C-18.79488281 2.11042969 -18.21867187 1.74820312 -17.625 1.375 C-16.75681641 0.80458984 -16.75681641 0.80458984 -15.87109375 0.22265625 C-10.57442853 -2.64073817 -5.37433852 -2.48663424 0 0 Z " fill="#0e288f" fill-opacity="0.15" transform="translate(502.1875,1037.6875)"/>
<path d="M0 0 C11.97303052 9.27862429 19.42225995 21.84042686 21.46484375 36.91015625 C22.81542285 51.25423769 17.96913177 64.77188988 9.0546875 75.92578125 C0.28120493 85.38408647 -11.79639545 92.56528163 -24.953125 93.24609375 C-40.00805014 93.53148031 -52.56179438 90.74049838 -64.203125 80.58203125 C-75.08111418 70.10574034 -81.46371958 57.74982988 -81.78515625 42.34765625 C-81.56543197 27.71401919 -75.92127059 15.70489209 -65.94921875 5.19921875 C-47.78127297 -12.02799198 -20.70019809 -14.31687709 0 0 Z M-42.28515625 31.03515625 C-45.25211243 34.82626693 -46.35065492 38.10509987 -46.53515625 42.91015625 C-45.55726582 48.54562793 -42.9375712 52.25937312 -38.53515625 55.91015625 C-34.23610866 58.41867268 -30.41166482 58.68560106 -25.53515625 57.91015625 C-21.22578639 56.17298812 -18.30490137 53.94450126 -15.53515625 50.22265625 C-13.75097843 44.31256723 -13.42684572 39.12677731 -16.22265625 33.53515625 C-20.08328926 29.15281608 -22.59575547 26.80088515 -28.47265625 25.97265625 C-34.45048777 25.60901961 -37.60826706 27.42119642 -42.28515625 31.03515625 Z " fill="#0e288f" fill-opacity="0.15" transform="translate(522.53515625,284.08984375)"/>
<path d="M0 0 C9.24113281 8.3224237 14.93982119 20.70192575 16 33 C16.12181641 34.04800781 16.12181641 34.04800781 16.24609375 35.1171875 C17.00928964 47.37457611 12.29793063 59.43553144 5 69 C4.53851562 69.65355469 4.07703125 70.30710937 3.6015625 70.98046875 C-3.2973983 80.01292321 -15.07589074 85.58178173 -26 88 C-43.1083557 89.50821472 -56.84542093 86.29870456 -70.25390625 75.12109375 C-80.260406 65.7221993 -85.90092312 53.40908366 -86.47290039 39.6862793 C-86.66109669 24.50341529 -81.61542859 11.81062383 -71.1875 0.6875 C-50.49452591 -18.73450448 -21.11348124 -17.63252208 0 0 Z M-48 27 C-50.87533153 31.08111572 -51.5961661 34.78725775 -51.4140625 39.6875 C-50.4555336 45.0407935 -47.60666053 48.80434565 -43.3125 52 C-37.41640849 53.77995215 -32.23802238 54.07756633 -26.625 51.375 C-22.93932875 48.04034506 -20.63971829 44.91915488 -19.0625 40.1875 C-18.96303189 35.11462647 -20.02356219 30.22349254 -23.46875 26.34765625 C-28.41992719 22.16099907 -31.84538855 21.5899582 -38.16796875 21.65625 C-42.48823701 22.18064118 -45.07184641 23.84660383 -48 27 Z " fill="#0e288f" fill-opacity="0.15" transform="translate(530,937)"/>
</svg>
