<?xml version="1.0" encoding="UTF-8"?>
<svg version="1.1" xmlns="http://www.w3.org/2000/svg" width="117" height="117">
<path d="M0 0 C32.4514779 -2.83810952 32.4514779 -2.83810952 41.01269531 1.54101562 C45.50585153 5.43855397 48.20347588 10.26192578 50.76464844 15.5703125 C52.7120773 19.40051251 55.29450475 22.70507739 57.875 26.125 C58.69008286 27.26976194 59.50058491 28.41781132 60.3046875 29.5703125 C60.86414062 30.37210938 61.42359375 31.17390625 62 32 C65.5672919 29.3136741 68.31882724 26.57799593 71.0625 23.0625 C75.13876933 17.96545061 79.4512634 13.16571988 83.92602539 8.41625977 C86.90916163 5.26692931 86.90916163 5.26692931 89.24609375 1.63671875 C91.90686316 -0.84627097 94.48636123 -0.40526922 98.01757812 -0.3515625 C98.89865234 -0.31804688 99.77972656 -0.28453125 100.6875 -0.25 C102.02651367 -0.22292969 102.02651367 -0.22292969 103.39257812 -0.1953125 C105.59613504 -0.14817759 107.79752601 -0.08240657 110 0 C109.14225538 4.47021517 106.58713783 6.88887719 103.5 10.0625 C99.67035465 14.09609097 95.97467939 18.15026348 92.5 22.5 C88.58333247 27.39224772 84.40191114 31.97234194 80.07226562 36.49804688 C77.24310286 39.49252592 75.05454306 42.44224253 73 46 C73.4218457 46.55236328 73.84369141 47.10472656 74.27832031 47.67382812 C89.39622516 67.47557653 89.39622516 67.47557653 96.39257812 76.86987305 C99.32204802 80.79426665 102.2950245 84.68139333 105.296875 88.55078125 C106.03421875 89.50533203 106.7715625 90.45988281 107.53125 91.44335938 C108.98882407 93.32819768 110.45220171 95.20856495 111.921875 97.08398438 C112.581875 97.93927734 113.241875 98.79457031 113.921875 99.67578125 C114.51581055 100.43802002 115.10974609 101.20025879 115.72167969 101.9855957 C117 104 117 104 117 107 C85.40130698 109.67211723 85.40130698 109.67211723 77.18115234 105.60546875 C72.99454237 101.98908865 70.63573848 97.41185807 68.28222656 92.47363281 C66.0071861 88.08469336 62.91158564 84.31900896 59.875 80.4375 C59.3284375 79.6937915 58.781875 78.95008301 58.21875 78.18383789 C57.71085937 77.50313232 57.20296875 76.82242676 56.6796875 76.12109375 C56.23351074 75.5170874 55.78733398 74.91308105 55.32763672 74.29077148 C53.95011732 72.65145892 53.95011732 72.65145892 51 73 C48.93751238 74.84362576 48.93751238 74.84362576 46.875 77.3125 C45.67810547 78.68535156 45.67810547 78.68535156 44.45703125 80.0859375 C41.37172784 83.74513678 38.35499239 87.45631894 35.34765625 91.1796875 C32.0217391 95.17521526 28.5078278 98.978463 24.96875 102.78515625 C22.97328212 104.83679121 22.97328212 104.83679121 22 107 C15.4 107 8.8 107 2 107 C6.41427202 98.17145597 13.84050636 91.01198035 20.54736328 83.84692383 C24.52282497 79.57789934 28.23307802 75.13852627 31.88671875 70.58984375 C35.13128431 66.61360166 38.55452099 62.8022316 42 59 C40.20158289 54.82472754 37.42181567 51.4046402 34.6875 47.8125 C34.15697021 47.1105249 33.62644043 46.4085498 33.07983398 45.68530273 C31.3907858 43.45362028 29.69634066 41.22614333 28 39 C27.46342773 38.29552734 26.92685547 37.59105469 26.37402344 36.86523438 C24.7716103 34.76322812 23.16748334 32.66254433 21.5625 30.5625 C21.03124512 29.86713135 20.49999023 29.1717627 19.95263672 28.45532227 C17.10418546 24.73230144 14.2411213 21.02153915 11.359375 17.32421875 C10.76568115 16.55843506 10.1719873 15.79265137 9.56030273 15.00366211 C8.42400432 13.53848951 7.28312898 12.0768511 6.13696289 10.61938477 C5.62383545 9.95608154 5.11070801 9.29277832 4.58203125 8.609375 C4.13061768 8.03155273 3.6792041 7.45373047 3.21411133 6.85839844 C1.78675163 4.67358806 0.9008337 2.44313442 0 0 Z M24 12 C25.38976292 14.97556083 27.01044833 17.51113476 28.984375 20.1328125 C29.58266113 20.92969482 30.18094727 21.72657715 30.79736328 22.54760742 C31.4417334 23.39814697 32.08610352 24.24868652 32.75 25.125 C33.4188623 26.01227783 34.08772461 26.89955566 34.77685547 27.8137207 C40.31497009 35.1407415 45.94335466 42.39533835 51.59765625 49.6328125 C54.94614134 53.92231266 58.26002136 58.23751742 61.5625 62.5625 C62.08924316 63.25214844 62.61598633 63.94179687 63.15869141 64.65234375 C65.35741346 67.53282444 67.55434242 70.41466241 69.74951172 73.29785156 C70.9287706 74.84666123 72.10853443 76.39508657 73.28881836 77.94311523 C74.39367775 79.39224812 75.49743633 80.84222125 76.59985352 82.29321289 C78.05665585 84.20335663 79.52743831 86.10199753 81 88 C81.44561279 88.59586914 81.89122559 89.19173828 82.3503418 89.80566406 C83.75206083 91.66540693 83.75206083 91.66540693 86 94 C89.71073505 94.50196294 89.71073505 94.50196294 93 94 C90.03634836 88.48371409 86.58654148 83.70183479 82.6875 78.8125 C77.58240357 72.33140481 72.55876724 65.80000079 67.625 59.1875 C61.72982925 51.29314428 55.79990141 43.42679508 49.78759766 35.62109375 C46.63173127 31.51358125 43.54339853 27.38790113 40.60546875 23.12109375 C39.81402466 21.99429199 39.81402466 21.99429199 39.0065918 20.84472656 C38.03384699 19.45189346 37.08172215 18.04432279 36.15551758 16.62011719 C34.38221333 14.10785366 32.99671501 12.19158771 29.87890625 11.59228516 C27.41096232 11.53712766 27.41096232 11.53712766 24 12 Z " fill="#F4F4F4" transform="translate(0,6)"/>
<path d="M0 0 C0.66 0.33 1.32 0.66 2 1 C2 1.99 2 2.98 2 4 C-10.21 4 -22.42 4 -35 4 C-35.33 3.34 -35.66 2.68 -36 2 C-24.12 2 -12.24 2 0 2 C0 1.34 0 0.68 0 0 Z " fill="#A1A1A1" transform="translate(115,109)"/>
<path d="M0 0 C0.33 0.66 0.66 1.32 1 2 C6.61 2 12.22 2 18 2 C18 2.66 18 3.32 18 4 C11.4 4 4.8 4 -2 4 C-1.34 2.68 -0.68 1.36 0 0 Z " fill="#A1A1A1" transform="translate(4,109)"/>
</svg>
