<?xml version="1.0" encoding="UTF-8"?>
<svg version="1.1" xmlns="http://www.w3.org/2000/svg" width="1000" height="1000">
<path d="M0 0 C2.23306 -0.00115384 4.46611981 -0.00274313 6.69917923 -0.00472724 C12.80265576 -0.00888446 18.90611656 -0.00684622 25.00959313 -0.00374103 C30.92637971 -0.00170576 36.84316372 -0.00437942 42.75994971 -0.00688839 C55.60063052 -0.01214115 68.44130634 -0.01170291 81.28198762 -0.00880948 C92.51999365 -0.00628975 103.75799785 -0.00563916 114.9960041 -0.00683212 C115.74266462 -0.00690851 116.48932514 -0.00698489 117.25861173 -0.00706359 C120.28988066 -0.00737495 123.32114959 -0.00769336 126.35241851 -0.00802336 C154.76483227 -0.01107959 183.17724286 -0.00831335 211.58965613 -0.00292646 C236.80717337 0.00181835 262.02468556 0.0013946 287.24220276 -0.00338745 C315.60253812 -0.00874756 343.96287069 -0.01086232 372.32320648 -0.00777519 C375.34912844 -0.00745449 378.37505041 -0.00714165 381.40097237 -0.00683212 C382.51848457 -0.00671351 382.51848457 -0.00671351 383.65857278 -0.00659249 C394.88611591 -0.00545724 406.11365702 -0.00678117 417.34119987 -0.00931168 C430.11411177 -0.0121762 442.88701791 -0.01144491 455.65992909 -0.00603093 C462.17325019 -0.00336089 468.68656318 -0.00236469 475.19988441 -0.00568008 C481.16897781 -0.00867244 487.13805154 -0.00700148 493.10714317 -0.00170253 C495.25972413 -0.00059085 497.41230676 -0.00114161 499.56488662 -0.00357832 C510.26283781 -0.01475385 520.88549746 0.11414185 531.55716091 0.90316117 C535.64173446 1.18812137 539.67162715 1.22603515 543.76539612 1.18948364 C544.45633362 1.18497192 545.14727112 1.18046021 545.85914612 1.17581177 C547.49460434 1.16445442 549.13001558 1.14655602 550.76539612 1.12698364 C550.76539612 1.78698364 550.76539612 2.44698364 550.76539612 3.12698364 C556.70539612 3.12698364 562.64539612 3.12698364 568.76539612 3.12698364 C568.76539612 3.78698364 568.76539612 4.44698364 568.76539612 5.12698364 C569.89719299 5.11538208 571.02898987 5.10378052 572.19508362 5.09182739 C573.67685281 5.08244911 575.15862377 5.07334895 576.64039612 5.06448364 C577.38676331 5.05610474 578.13313049 5.04772583 578.90211487 5.03909302 C584.53883362 5.01370239 584.53883362 5.01370239 586.76539612 6.12698364 C588.08539612 6.12698364 589.40539612 6.12698364 590.76539612 6.12698364 C591.09539612 6.78698364 591.42539612 7.44698364 591.76539612 8.12698364 C593.88198981 8.93717132 593.88198981 8.93717132 596.48023987 9.57229614 C597.96137268 9.97424194 597.96137268 9.97424194 599.47242737 10.38430786 C600.53848206 10.67064087 601.60453674 10.95697388 602.70289612 11.25198364 C628.58090575 18.52250857 651.08526996 31.38312431 671.67945862 48.53323364 C673.6774132 50.17084426 673.6774132 50.17084426 675.84742737 51.13088989 C678.1098262 52.30586281 679.22354226 53.59084117 680.82789612 55.56448364 C683.72161205 59.00115693 686.78382764 62.13105375 690.01539612 65.25198364 C732.02270757 106.46246732 744.94793377 161.7171072 747.86250305 218.50221252 C747.90491441 219.32014274 747.94732577 220.13807296 747.99102232 220.98078894 C749.1152715 243.33005482 749.05122271 265.68716785 749.02684546 288.05885375 C749.02224206 294.33503158 749.02934297 300.61119921 749.0348053 306.88737488 C749.04311223 318.4223681 749.04249549 329.95733441 749.03698236 341.49232823 C749.0319121 352.15561301 749.03065585 362.81889008 749.03302765 373.48217583 C749.0332568 374.55123294 749.0332568 374.55123294 749.03349059 375.64188716 C749.03411346 378.53639135 749.03475028 381.43089553 749.03541012 384.32539971 C749.04150116 411.36917472 749.03602416 438.41293636 749.02521632 465.4567093 C749.0157271 489.38269658 749.01657838 513.30866256 749.02613831 537.23464966 C749.03689174 564.23664549 749.04106986 591.23862955 749.03491378 618.24062723 C749.03427253 621.12895389 749.03364684 624.01728056 749.03302765 626.90560722 C749.03286949 627.61656988 749.03271134 628.32753255 749.03254839 629.06003953 C749.03029168 639.70649857 749.03289952 650.35294898 749.03798676 660.99940681 C749.0437537 673.12736136 749.04198515 685.25528447 749.03142527 697.38323743 C749.02622889 703.55111711 749.02400642 709.71895399 749.03072357 715.88683319 C749.0667978 752.09361459 748.76049307 788.20146282 743.76539612 824.12698364 C743.66146545 824.9336145 743.55753479 825.74024536 743.45045471 826.57131958 C736.80843293 877.72901925 707.61822899 924.10973709 667.13941956 955.60623169 C648.36336315 969.89006844 628.16783333 980.80737545 605.76539612 988.12698364 C605.76539612 988.78698364 605.76539612 989.44698364 605.76539612 990.12698364 C602.76539612 991.12698364 602.76539612 991.12698364 600.83961487 990.63870239 C597.19471597 989.73949005 594.29922412 991.02628312 590.76539612 992.12698364 C590.43539612 992.78698364 590.10539612 993.44698364 589.76539612 994.12698364 C586.46539612 993.79698364 583.16539612 993.46698364 579.76539612 993.12698364 C579.43539612 993.78698364 579.10539612 994.44698364 578.76539612 995.12698364 C576.74586487 995.47073364 576.74586487 995.47073364 573.95289612 995.62698364 C569.49969392 995.92145293 565.07825159 996.3032484 560.6438905 996.80856496 C527.68780111 1000.45023137 494.55821513 1000.42026752 461.4489634 1000.37377393 C455.08381738 1000.36708688 448.71867798 1000.3721687 442.35353088 1000.37565613 C431.36616569 1000.38007944 420.37882312 1000.37728498 409.39146042 1000.36900902 C397.8781045 1000.36033935 386.3647578 1000.35549016 374.85139847 1000.35567665 C373.769681 1000.35568812 373.769681 1000.35568812 372.66611066 1000.35569982 C369.73774253 1000.35574074 366.80937439 1000.35580636 363.88100626 1000.35590563 C336.52283175 1000.35680774 309.16467118 1000.34692509 281.8065015 1000.33147597 C257.55207503 1000.31783008 233.29765843 1000.31161598 209.04322815 1000.31228638 C207.48290264 1000.31232679 205.92257713 1000.31236715 204.36225162 1000.31240746 C203.20509571 1000.31243798 203.20509571 1000.31243798 202.02456291 1000.31246913 C198.14043876 1000.31256994 194.25631462 1000.31266051 190.37219048 1000.31273937 C189.60573727 1000.31275609 188.83928406 1000.3127728 188.049605 1000.31279002 C167.70691713 1000.31315567 147.36423047 1000.30861194 127.02154362 1000.30241281 C125.93543563 1000.3020824 125.93543563 1000.3020824 124.82738606 1000.30174532 C121.91650484 1000.30085723 119.00562362 1000.2999688 116.09474241 1000.29905436 C106.00543542 1000.2959056 95.91612939 1000.29438658 85.82682194 1000.29394287 C72.83353154 1000.29334414 59.8402505 1000.28920415 46.84696339 1000.27951141 C40.59032645 1000.27491297 34.33369944 1000.27184073 28.0770607 1000.27310562 C22.33998933 1000.27420923 16.60293981 1000.27063059 10.86587299 1000.2634571 C8.80137943 1000.26166005 6.73688359 1000.26149735 4.67238997 1000.26322439 C-6.68140425 1000.27166403 -17.97079216 1000.04098246 -29.30493534 999.35056955 C-33.85112734 999.09190538 -38.37052351 999.00595689 -42.92210388 999.06448364 C-43.64720154 999.06899536 -44.37229919 999.07350708 -45.11936951 999.07815552 C-46.82448792 999.08944769 -48.52956128 999.10733526 -50.23460388 999.12698364 C-50.23460388 998.46698364 -50.23460388 997.80698364 -50.23460388 997.12698364 C-52.18366638 997.15792114 -52.18366638 997.15792114 -54.17210388 997.18948364 C-58.92842713 997.19703336 -63.51849342 996.72585481 -68.23460388 996.12698364 C-68.56460388 996.78698364 -68.89460388 997.44698364 -69.23460388 998.12698364 C-69.23460388 997.13698364 -69.23460388 996.14698364 -69.23460388 995.12698364 C-70.11503357 995.13858521 -70.99546326 995.15018677 -71.90257263 995.16213989 C-73.6447406 995.17567505 -73.6447406 995.17567505 -75.42210388 995.18948364 C-76.57065857 995.20108521 -77.71921326 995.21268677 -78.90257263 995.22463989 C-81.8376556 995.13861753 -84.38173398 994.76095473 -87.23460388 994.12698364 C-88.90085918 994.08995575 -90.56861707 994.07938402 -92.23460388 994.12698364 C-92.56460388 993.46698364 -92.89460388 992.80698364 -93.23460388 992.12698364 C-95.25923643 991.47485073 -95.25923643 991.47485073 -97.23460388 991.12698364 C-97.56460388 991.78698364 -97.89460388 992.44698364 -98.23460388 993.12698364 C-99.22460388 992.79698364 -100.21460388 992.46698364 -101.23460388 992.12698364 C-101.23460388 991.13698364 -101.23460388 990.14698364 -101.23460388 989.12698364 C-102.22589294 989.01483521 -103.21718201 988.90268677 -104.23851013 988.78713989 C-108.40301273 988.18623927 -112.21919815 986.97949928 -116.17210388 985.56448364 C-116.90791687 985.30199829 -117.64372986 985.03951294 -118.40184021 984.76907349 C-126.34271913 981.84647723 -133.78981219 978.12550449 -141.23460388 974.12698364 C-142.1252655 973.65953735 -142.1252655 973.65953735 -143.03392029 973.18264771 C-152.50723012 968.19113514 -160.88956957 962.15727871 -169.31956482 955.59866333 C-171.32389954 954.05836123 -173.35996101 952.56671015 -175.39866638 951.07229614 C-178.63227287 948.65257197 -181.43986419 946.05286807 -184.23460388 943.12698364 C-185.28581256 942.10386586 -186.34076692 941.08458792 -187.39866638 940.06838989 C-194.91035961 932.76884247 -201.72393571 925.25929107 -207.95970154 916.84182739 C-209.19330928 915.18252813 -210.45191364 913.5450876 -211.71507263 911.90823364 C-232.23779288 884.80928458 -242.38951735 853.39823002 -247.23460388 820.12698364 C-247.39654236 819.03015259 -247.39654236 819.03015259 -247.56175232 817.91116333 C-252.1840812 785.36810037 -251.53045803 752.13766232 -251.49605322 719.36411762 C-251.49194014 713.54986233 -251.49735504 707.73561987 -251.50234795 701.92136639 C-251.51278594 689.32433407 -251.51200443 676.72732225 -251.50619012 664.13028806 C-251.50112741 653.10536036 -251.49986018 642.08044011 -251.50223541 631.05551147 C-251.50238818 630.31970099 -251.50254095 629.5838905 -251.50269835 628.82578273 C-251.50332119 625.83770585 -251.50395801 622.84962897 -251.50461788 619.8615521 C-251.51071424 591.92117737 -251.50522349 563.98081558 -251.49442409 536.04044285 C-251.4849353 511.30300681 -251.48578465 486.56559138 -251.49534607 461.82815552 C-251.50609209 433.93372215 -251.51028161 406.03930018 -251.50412154 378.14486504 C-251.50348026 375.16272863 -251.50285457 372.18059222 -251.50223541 369.19845581 C-251.50199818 368.09731292 -251.50199818 368.09731292 -251.50175616 366.97392471 C-251.49949632 355.96514709 -251.50211329 344.95637779 -251.50719452 333.94760132 C-251.51295299 321.41025001 -251.5113993 308.87292212 -251.50063303 296.33557367 C-251.49542569 289.95557183 -251.49323378 283.57561146 -251.49993134 277.19561005 C-251.57745885 196.37696849 -247.84877955 120.90565927 -187.70970154 60.53616333 C-185.3473107 58.17799428 -182.97879205 55.82616624 -180.60398865 53.48049927 C-179.47699104 52.36656189 -178.3550904 51.24747016 -177.23460388 50.12698364 C-174.61007822 48.07118222 -171.91771987 46.10548488 -169.23460388 44.12698364 C-168.57847107 43.64277954 -167.92233826 43.15857544 -167.24632263 42.65969849 C-157.29975699 35.3766796 -147.16323012 28.83704101 -136.23460388 23.12698364 C-135.48783386 22.72552124 -134.74106384 22.32405884 -133.97166443 21.91043091 C-127.4921966 18.52321536 -120.87916155 16.15485955 -113.92210388 13.93948364 C-111.82143869 13.25974372 -109.72116335 12.57879752 -107.62132263 11.89651489 C-106.70568542 11.60365601 -105.79004822 11.31079712 -104.84666443 11.00906372 C-100.96861294 9.69946469 -97.65341076 8.40618823 -94.23460388 6.12698364 C-91.75413513 6.15042114 -91.75413513 6.15042114 -89.04710388 6.50198364 C-87.69552185 6.66827271 -87.69552185 6.66827271 -86.31663513 6.83792114 C-85.28602966 6.98100708 -85.28602966 6.98100708 -84.23460388 7.12698364 C-83.90460388 6.46698364 -83.57460388 5.80698364 -83.23460388 5.12698364 C-82.28585388 5.16823364 -81.33710388 5.20948364 -80.35960388 5.25198364 C-77.13215532 5.47672182 -77.13215532 5.47672182 -75.23460388 3.12698364 C-73.07444763 3.00198364 -73.07444763 3.00198364 -70.17210388 3.12698364 C-61.30458024 3.2749401 -52.53955097 2.41939947 -43.71116638 1.66213989 C-41.55239486 1.48275706 -39.39353003 1.30449579 -37.23460388 1.12698364 C-35.68424333 0.99504284 -35.68424333 0.99504284 -34.10256237 0.86043656 C-22.73402303 -0.0097877 -11.39685369 -0.01288658 0 0 Z M-93.23460388 7.12698364 C-89.23460388 8.12698364 -89.23460388 8.12698364 -89.23460388 8.12698364 Z M31.76539612 288.12698364 C31.76539612 429.03698364 31.76539612 569.94698364 31.76539612 715.12698364 C71.03539612 715.12698364 110.30539612 715.12698364 150.76539612 715.12698364 C150.76539612 608.53698364 150.76539612 501.94698364 150.76539612 392.12698364 C309.53055244 389.4808977 309.53055244 389.4808977 328.57789612 407.50198364 C355.24580555 436.35578729 345.89656224 493.61431196 345.83385849 529.28502512 C345.82377447 535.79605206 345.82034711 542.30708217 345.81642151 548.81811523 C345.80928243 559.7159974 345.79905169 570.61387271 345.78590393 581.51174927 C345.78466221 582.5426447 345.78466221 582.5426447 345.78339541 583.5943663 C345.77833434 587.77929743 345.77318226 591.96422845 345.76799965 596.14915943 C345.76016541 602.47672828 345.75242346 608.80429724 345.74488831 615.13186646 C345.74406018 615.82615148 345.74323205 616.5204365 345.74237883 617.23576047 C345.72871587 628.79325506 345.71898992 640.35074917 345.71197796 651.90824974 C345.7069896 659.65119911 345.69712467 667.39412248 345.68354797 675.13706136 C345.67612304 679.9258598 345.67278018 684.7146546 345.67058182 689.50345802 C345.66870067 691.73161725 345.66508183 693.95977575 345.6596489 696.18792915 C345.65249744 699.21427212 345.65139221 702.24055684 345.65187073 705.26690674 C345.64827577 706.15994951 345.64468081 707.05299229 345.64097691 707.97309697 C345.26127507 711.86203489 345.26127507 711.86203489 346.76539612 715.12698364 C348.29625451 715.22280186 349.83153368 715.24886473 351.36538696 715.24723816 C352.85675423 715.24930016 352.85675423 715.24930016 354.37825012 715.25140381 C355.47804199 715.24780853 356.57783386 715.24421326 357.71095276 715.24050903 C358.86202011 715.24065506 360.01308746 715.24080109 361.19903564 715.24095154 C365.02456003 715.24025182 368.85003643 715.23245667 372.67555237 715.22463989 C375.31971205 715.22277592 377.96387208 715.22135192 380.60803223 715.22035217 C386.86955029 715.21723914 393.13105098 715.20902612 399.39256138 715.19900268 C406.51941149 715.18784069 413.64626242 715.18233088 420.77311909 715.17730725 C435.43722041 715.16684348 450.10130802 715.14924458 464.76539612 715.12698364 C465.75509566 701.71489061 465.90831866 688.3616984 465.89479065 674.91726685 C465.89614879 672.62848889 465.89793104 670.33971116 465.90010071 668.05093384 C465.90462925 661.87862995 465.90290354 655.70634293 465.89972162 649.53403878 C465.89717023 643.03118107 465.89954361 636.5283247 465.90110779 630.02546692 C465.90303907 618.39707871 465.89994849 606.7686981 465.89484845 595.14031108 C465.89039545 584.66475481 465.89114644 574.18920964 465.89576721 563.71365356 C465.90116021 551.48211809 465.90308791 539.25058967 465.90015495 527.01905316 C465.89861145 520.56960261 465.89834421 514.12015965 465.90169144 507.67070961 C469.33088476 414.8904469 469.33088476 414.8904469 433.76539612 332.12698364 C433.04609924 331.27104614 432.32680237 330.41510864 431.58570862 329.53323364 C405.77633887 299.88371545 368.07585898 289.26528256 329.98023987 286.49807739 C231.30564509 280.26850057 129.74858356 286.56342214 31.76539612 288.12698364 Z M-91.23460388 992.12698364 C-87.23460388 993.12698364 -87.23460388 993.12698364 -87.23460388 993.12698364 Z M584.76539612 992.12698364 C588.76539612 993.12698364 588.76539612 993.12698364 588.76539612 993.12698364 Z " fill="#FEFEFE" transform="translate(251.23460388183594,-0.126983642578125)"/>
<path d="M0 0 C2.23306 -0.00115384 4.46611981 -0.00274313 6.69917923 -0.00472724 C12.80265576 -0.00888446 18.90611656 -0.00684622 25.00959313 -0.00374103 C30.92637971 -0.00170576 36.84316372 -0.00437942 42.75994971 -0.00688839 C55.60063052 -0.01214115 68.44130634 -0.01170291 81.28198762 -0.00880948 C92.51999365 -0.00628975 103.75799785 -0.00563916 114.9960041 -0.00683212 C115.74266462 -0.00690851 116.48932514 -0.00698489 117.25861173 -0.00706359 C120.28988066 -0.00737495 123.32114959 -0.00769336 126.35241851 -0.00802336 C154.76483227 -0.01107959 183.17724286 -0.00831335 211.58965613 -0.00292646 C236.80717337 0.00181835 262.02468556 0.0013946 287.24220276 -0.00338745 C315.60253812 -0.00874756 343.96287069 -0.01086232 372.32320648 -0.00777519 C375.34912844 -0.00745449 378.37505041 -0.00714165 381.40097237 -0.00683212 C382.51848457 -0.00671351 382.51848457 -0.00671351 383.65857278 -0.00659249 C394.88611591 -0.00545724 406.11365702 -0.00678117 417.34119987 -0.00931168 C430.11411177 -0.0121762 442.88701791 -0.01144491 455.65992909 -0.00603093 C462.17325019 -0.00336089 468.68656318 -0.00236469 475.19988441 -0.00568008 C481.16897781 -0.00867244 487.13805154 -0.00700148 493.10714317 -0.00170253 C495.25972413 -0.00059085 497.41230676 -0.00114161 499.56488662 -0.00357832 C510.26283781 -0.01475385 520.88549746 0.11414185 531.55716091 0.90316117 C535.64173446 1.18812137 539.67162715 1.22603515 543.76539612 1.18948364 C544.45633362 1.18497192 545.14727112 1.18046021 545.85914612 1.17581177 C547.49460434 1.16445442 549.13001558 1.14655602 550.76539612 1.12698364 C550.76539612 1.78698364 550.76539612 2.44698364 550.76539612 3.12698364 C556.70539612 3.12698364 562.64539612 3.12698364 568.76539612 3.12698364 C568.76539612 3.78698364 568.76539612 4.44698364 568.76539612 5.12698364 C569.89719299 5.11538208 571.02898987 5.10378052 572.19508362 5.09182739 C573.67685281 5.08244911 575.15862377 5.07334895 576.64039612 5.06448364 C577.38676331 5.05610474 578.13313049 5.04772583 578.90211487 5.03909302 C584.53883362 5.01370239 584.53883362 5.01370239 586.76539612 6.12698364 C588.08539612 6.12698364 589.40539612 6.12698364 590.76539612 6.12698364 C591.09539612 6.78698364 591.42539612 7.44698364 591.76539612 8.12698364 C593.88198981 8.93717132 593.88198981 8.93717132 596.48023987 9.57229614 C597.96137268 9.97424194 597.96137268 9.97424194 599.47242737 10.38430786 C600.53848206 10.67064087 601.60453674 10.95697388 602.70289612 11.25198364 C628.58090575 18.52250857 651.08526996 31.38312431 671.67945862 48.53323364 C673.6774132 50.17084426 673.6774132 50.17084426 675.84742737 51.13088989 C678.1098262 52.30586281 679.22354226 53.59084117 680.82789612 55.56448364 C683.72161205 59.00115693 686.78382764 62.13105375 690.01539612 65.25198364 C732.02270757 106.46246732 744.94793377 161.7171072 747.86250305 218.50221252 C747.90491441 219.32014274 747.94732577 220.13807296 747.99102232 220.98078894 C749.1152715 243.33005482 749.05122271 265.68716785 749.02684546 288.05885375 C749.02224206 294.33503158 749.02934297 300.61119921 749.0348053 306.88737488 C749.04311223 318.4223681 749.04249549 329.95733441 749.03698236 341.49232823 C749.0319121 352.15561301 749.03065585 362.81889008 749.03302765 373.48217583 C749.0332568 374.55123294 749.0332568 374.55123294 749.03349059 375.64188716 C749.03411346 378.53639135 749.03475028 381.43089553 749.03541012 384.32539971 C749.04150116 411.36917472 749.03602416 438.41293636 749.02521632 465.4567093 C749.0157271 489.38269658 749.01657838 513.30866256 749.02613831 537.23464966 C749.03689174 564.23664549 749.04106986 591.23862955 749.03491378 618.24062723 C749.03427253 621.12895389 749.03364684 624.01728056 749.03302765 626.90560722 C749.03286949 627.61656988 749.03271134 628.32753255 749.03254839 629.06003953 C749.03029168 639.70649857 749.03289952 650.35294898 749.03798676 660.99940681 C749.0437537 673.12736136 749.04198515 685.25528447 749.03142527 697.38323743 C749.02622889 703.55111711 749.02400642 709.71895399 749.03072357 715.88683319 C749.0667978 752.09361459 748.76049307 788.20146282 743.76539612 824.12698364 C743.66146545 824.9336145 743.55753479 825.74024536 743.45045471 826.57131958 C736.80843293 877.72901925 707.61822899 924.10973709 667.13941956 955.60623169 C648.36336315 969.89006844 628.16783333 980.80737545 605.76539612 988.12698364 C605.76539612 988.78698364 605.76539612 989.44698364 605.76539612 990.12698364 C602.76539612 991.12698364 602.76539612 991.12698364 600.83961487 990.63870239 C597.19471597 989.73949005 594.29922412 991.02628312 590.76539612 992.12698364 C590.43539612 992.78698364 590.10539612 993.44698364 589.76539612 994.12698364 C586.46539612 993.79698364 583.16539612 993.46698364 579.76539612 993.12698364 C579.43539612 993.78698364 579.10539612 994.44698364 578.76539612 995.12698364 C576.74586487 995.47073364 576.74586487 995.47073364 573.95289612 995.62698364 C569.49969392 995.92145293 565.07825159 996.3032484 560.6438905 996.80856496 C527.68780111 1000.45023137 494.55821513 1000.42026752 461.4489634 1000.37377393 C455.08381738 1000.36708688 448.71867798 1000.3721687 442.35353088 1000.37565613 C431.36616569 1000.38007944 420.37882312 1000.37728498 409.39146042 1000.36900902 C397.8781045 1000.36033935 386.3647578 1000.35549016 374.85139847 1000.35567665 C373.769681 1000.35568812 373.769681 1000.35568812 372.66611066 1000.35569982 C369.73774253 1000.35574074 366.80937439 1000.35580636 363.88100626 1000.35590563 C336.52283175 1000.35680774 309.16467118 1000.34692509 281.8065015 1000.33147597 C257.55207503 1000.31783008 233.29765843 1000.31161598 209.04322815 1000.31228638 C207.48290264 1000.31232679 205.92257713 1000.31236715 204.36225162 1000.31240746 C203.20509571 1000.31243798 203.20509571 1000.31243798 202.02456291 1000.31246913 C198.14043876 1000.31256994 194.25631462 1000.31266051 190.37219048 1000.31273937 C189.60573727 1000.31275609 188.83928406 1000.3127728 188.049605 1000.31279002 C167.70691713 1000.31315567 147.36423047 1000.30861194 127.02154362 1000.30241281 C125.93543563 1000.3020824 125.93543563 1000.3020824 124.82738606 1000.30174532 C121.91650484 1000.30085723 119.00562362 1000.2999688 116.09474241 1000.29905436 C106.00543542 1000.2959056 95.91612939 1000.29438658 85.82682194 1000.29394287 C72.83353154 1000.29334414 59.8402505 1000.28920415 46.84696339 1000.27951141 C40.59032645 1000.27491297 34.33369944 1000.27184073 28.0770607 1000.27310562 C22.33998933 1000.27420923 16.60293981 1000.27063059 10.86587299 1000.2634571 C8.80137943 1000.26166005 6.73688359 1000.26149735 4.67238997 1000.26322439 C-6.68140425 1000.27166403 -17.97079216 1000.04098246 -29.30493534 999.35056955 C-33.85112734 999.09190538 -38.37052351 999.00595689 -42.92210388 999.06448364 C-43.64720154 999.06899536 -44.37229919 999.07350708 -45.11936951 999.07815552 C-46.82448792 999.08944769 -48.52956128 999.10733526 -50.23460388 999.12698364 C-50.23460388 998.46698364 -50.23460388 997.80698364 -50.23460388 997.12698364 C-52.18366638 997.15792114 -52.18366638 997.15792114 -54.17210388 997.18948364 C-58.92842713 997.19703336 -63.51849342 996.72585481 -68.23460388 996.12698364 C-68.56460388 996.78698364 -68.89460388 997.44698364 -69.23460388 998.12698364 C-69.23460388 997.13698364 -69.23460388 996.14698364 -69.23460388 995.12698364 C-70.11503357 995.13858521 -70.99546326 995.15018677 -71.90257263 995.16213989 C-73.6447406 995.17567505 -73.6447406 995.17567505 -75.42210388 995.18948364 C-76.57065857 995.20108521 -77.71921326 995.21268677 -78.90257263 995.22463989 C-81.8376556 995.13861753 -84.38173398 994.76095473 -87.23460388 994.12698364 C-88.90085918 994.08995575 -90.56861707 994.07938402 -92.23460388 994.12698364 C-92.56460388 993.46698364 -92.89460388 992.80698364 -93.23460388 992.12698364 C-95.25923643 991.47485073 -95.25923643 991.47485073 -97.23460388 991.12698364 C-97.56460388 991.78698364 -97.89460388 992.44698364 -98.23460388 993.12698364 C-99.22460388 992.79698364 -100.21460388 992.46698364 -101.23460388 992.12698364 C-101.23460388 991.13698364 -101.23460388 990.14698364 -101.23460388 989.12698364 C-102.22589294 989.01483521 -103.21718201 988.90268677 -104.23851013 988.78713989 C-108.40301273 988.18623927 -112.21919815 986.97949928 -116.17210388 985.56448364 C-116.90791687 985.30199829 -117.64372986 985.03951294 -118.40184021 984.76907349 C-126.34271913 981.84647723 -133.78981219 978.12550449 -141.23460388 974.12698364 C-142.1252655 973.65953735 -142.1252655 973.65953735 -143.03392029 973.18264771 C-152.50723012 968.19113514 -160.88956957 962.15727871 -169.31956482 955.59866333 C-171.32389954 954.05836123 -173.35996101 952.56671015 -175.39866638 951.07229614 C-178.63227287 948.65257197 -181.43986419 946.05286807 -184.23460388 943.12698364 C-185.28581256 942.10386586 -186.34076692 941.08458792 -187.39866638 940.06838989 C-194.91035961 932.76884247 -201.72393571 925.25929107 -207.95970154 916.84182739 C-209.19330928 915.18252813 -210.45191364 913.5450876 -211.71507263 911.90823364 C-232.23779288 884.80928458 -242.38951735 853.39823002 -247.23460388 820.12698364 C-247.39654236 819.03015259 -247.39654236 819.03015259 -247.56175232 817.91116333 C-252.1840812 785.36810037 -251.53045803 752.13766232 -251.49605322 719.36411762 C-251.49194014 713.54986233 -251.49735504 707.73561987 -251.50234795 701.92136639 C-251.51278594 689.32433407 -251.51200443 676.72732225 -251.50619012 664.13028806 C-251.50112741 653.10536036 -251.49986018 642.08044011 -251.50223541 631.05551147 C-251.50238818 630.31970099 -251.50254095 629.5838905 -251.50269835 628.82578273 C-251.50332119 625.83770585 -251.50395801 622.84962897 -251.50461788 619.8615521 C-251.51071424 591.92117737 -251.50522349 563.98081558 -251.49442409 536.04044285 C-251.4849353 511.30300681 -251.48578465 486.56559138 -251.49534607 461.82815552 C-251.50609209 433.93372215 -251.51028161 406.03930018 -251.50412154 378.14486504 C-251.50348026 375.16272863 -251.50285457 372.18059222 -251.50223541 369.19845581 C-251.50199818 368.09731292 -251.50199818 368.09731292 -251.50175616 366.97392471 C-251.49949632 355.96514709 -251.50211329 344.95637779 -251.50719452 333.94760132 C-251.51295299 321.41025001 -251.5113993 308.87292212 -251.50063303 296.33557367 C-251.49542569 289.95557183 -251.49323378 283.57561146 -251.49993134 277.19561005 C-251.57745885 196.37696849 -247.84877955 120.90565927 -187.70970154 60.53616333 C-185.3473107 58.17799428 -182.97879205 55.82616624 -180.60398865 53.48049927 C-179.47699104 52.36656189 -178.3550904 51.24747016 -177.23460388 50.12698364 C-174.61007822 48.07118222 -171.91771987 46.10548488 -169.23460388 44.12698364 C-168.57847107 43.64277954 -167.92233826 43.15857544 -167.24632263 42.65969849 C-157.29975699 35.3766796 -147.16323012 28.83704101 -136.23460388 23.12698364 C-135.48783386 22.72552124 -134.74106384 22.32405884 -133.97166443 21.91043091 C-127.4921966 18.52321536 -120.87916155 16.15485955 -113.92210388 13.93948364 C-111.82143869 13.25974372 -109.72116335 12.57879752 -107.62132263 11.89651489 C-106.70568542 11.60365601 -105.79004822 11.31079712 -104.84666443 11.00906372 C-100.96861294 9.69946469 -97.65341076 8.40618823 -94.23460388 6.12698364 C-91.75413513 6.15042114 -91.75413513 6.15042114 -89.04710388 6.50198364 C-87.69552185 6.66827271 -87.69552185 6.66827271 -86.31663513 6.83792114 C-85.28602966 6.98100708 -85.28602966 6.98100708 -84.23460388 7.12698364 C-83.90460388 6.46698364 -83.57460388 5.80698364 -83.23460388 5.12698364 C-82.28585388 5.16823364 -81.33710388 5.20948364 -80.35960388 5.25198364 C-77.13215532 5.47672182 -77.13215532 5.47672182 -75.23460388 3.12698364 C-73.07444763 3.00198364 -73.07444763 3.00198364 -70.17210388 3.12698364 C-61.30458024 3.2749401 -52.53955097 2.41939947 -43.71116638 1.66213989 C-41.55239486 1.48275706 -39.39353003 1.30449579 -37.23460388 1.12698364 C-35.68424333 0.99504284 -35.68424333 0.99504284 -34.10256237 0.86043656 C-22.73402303 -0.0097877 -11.39685369 -0.01288658 0 0 Z M-5.08934021 4.5803833 C-5.84928264 4.60033615 -6.60922507 4.620289 -7.39219606 4.64084648 C-78.72876697 6.56962806 -140.56334331 17.3746236 -191.73680115 70.71609497 C-212.39983715 92.76677088 -228.90013186 119.69591716 -236.23460388 149.12698364 C-236.41475037 149.84466919 -236.59489685 150.56235474 -236.78050232 151.30178833 C-241.54905827 170.66057335 -243.81354646 190.26852386 -245.23460388 210.12698364 C-245.28858337 210.87077271 -245.34256287 211.61456177 -245.3981781 212.38088989 C-247.65884588 244.95886322 -247.38525148 277.75662577 -247.36532855 310.39212573 C-247.36302214 316.00844283 -247.36657953 321.62475711 -247.36930847 327.24107361 C-247.37371014 338.18646632 -247.37281499 349.1318521 -247.36989583 360.07724506 C-247.36761961 368.98763352 -247.36733879 377.89802007 -247.36841965 386.80840874 C-247.36857288 388.08589571 -247.36872611 389.36338268 -247.36888399 390.67958139 C-247.36920378 393.27631303 -247.36952799 395.87304468 -247.36985658 398.46977632 C-247.37261432 422.0203711 -247.36977484 445.57096127 -247.36451398 469.12155527 C-247.35976948 490.52318769 -247.36019524 511.92481416 -247.36497498 533.32644653 C-247.37035414 557.49157383 -247.37242095 581.6566969 -247.36936271 605.82182497 C-247.36904423 608.40767475 -247.36872985 610.99352453 -247.36841965 613.57937431 C-247.36826537 614.85103382 -247.3681111 616.12269332 -247.36795215 617.43288796 C-247.3670955 626.31364328 -247.36853131 635.19439646 -247.3708992 644.07515144 C-247.373729 654.92478926 -247.3728928 665.77441987 -247.36761846 676.62405688 C-247.36502387 682.1396595 -247.36390256 687.65525018 -247.36726761 693.17085266 C-249.91248808 818.77380965 -249.91248808 818.77380965 -193.30882263 926.86526489 C-191.43338802 928.91023031 -189.64427855 931.00317839 -187.85960388 933.12698364 C-153.02940775 972.7969109 -102.19716495 988.96706236 -51.23460388 993.12698364 C-49.44893005 993.27345337 -49.44893005 993.27345337 -47.62718201 993.42288208 C-26.26979518 995.06024498 -4.86269541 995.37610285 16.5471344 995.67337036 C17.28838166 995.68391672 18.02962891 995.69446308 18.79333821 995.70532903 C57.67259253 996.25804086 96.55147401 996.27525594 135.43395054 996.26228393 C142.60446244 996.25995603 149.77497198 996.25973147 156.94548416 996.26079941 C158.50700981 996.26102926 158.50700981 996.26102926 160.10008142 996.26126375 C162.21832338 996.26158364 164.33656534 996.26190786 166.4548073 996.26223634 C186.07953961 996.265053 205.70426717 996.26186531 225.3289987 996.25643598 C241.97332755 996.25197282 258.61764942 996.2527474 275.26197815 996.25735474 C294.83839568 996.26277158 314.41480909 996.2647773 333.99122727 996.26174247 C336.10004369 996.2614241 338.20886012 996.26110972 340.31767654 996.26079941 C341.87192577 996.26056799 341.87192577 996.26056799 343.45757397 996.26033191 C350.57397509 996.25948767 357.69037344 996.26090576 364.80677414 996.26327896 C402.85230815 996.27470728 440.89648976 996.24310145 478.93958893 995.77090368 C481.13720089 995.74447868 483.33482528 995.72072855 485.53247619 995.69779801 C506.32820066 995.47496764 527.01817704 994.50487916 547.76539612 993.12698364 C548.85695078 993.05681337 549.94850544 992.9866431 551.07313752 992.91434646 C552.06567528 992.85020183 553.05821305 992.7860572 554.08082771 992.7199688 C554.92989665 992.6652135 555.77896559 992.6104582 556.65376389 992.55404365 C570.92138935 991.51192811 584.86081055 988.36890841 598.76539612 985.12698364 C599.61504944 984.93265747 600.46470276 984.7383313 601.34010315 984.53811646 C631.62624659 977.40032355 658.61369413 958.37007846 680.76539612 937.12698364 C681.56227844 936.37094849 681.56227844 936.37094849 682.3752594 935.59963989 C690.66771859 927.6987759 698.02512845 919.38847852 704.76539612 910.12698364 C705.17854065 909.5635022 705.59168518 909.00002075 706.01734924 908.41946411 C717.87788297 892.03369505 727.528261 873.69864426 732.76539612 854.12698364 C732.98244202 853.3366272 733.19948792 852.54627075 733.42311096 851.73196411 C743.80011654 813.05956311 743.74951577 772.12880527 744.30787659 732.38674927 C744.31850981 731.64517881 744.32914303 730.90360835 744.34009847 730.13956606 C744.89760518 691.16111166 744.91365558 652.18308588 744.90069634 613.20136288 C744.89836901 606.00652007 744.89814378 598.81167962 744.89921188 591.61683655 C744.89936512 590.57246664 744.89951835 589.52809674 744.89967623 588.45207927 C744.89999612 586.32706884 744.90032033 584.20205842 744.90064882 582.077048 C744.90346547 562.38990332 744.90027764 542.70276337 744.89484845 523.01561946 C744.89038396 506.31266687 744.89116098 489.60972126 744.89576721 472.9067688 C744.90118171 453.26518087 744.90319114 433.62359703 744.90015495 413.98200846 C744.89983657 411.86704922 744.8995222 409.75208998 744.89921188 407.63713074 C744.89905761 406.59791905 744.89890333 405.55870737 744.89874438 404.48800442 C744.89789956 397.3451157 744.89931683 390.20222973 744.90169144 383.05934143 C744.9134106 344.32572928 744.86322119 305.59745157 744.30787659 266.86721802 C744.29768585 266.14187917 744.28749512 265.41654033 744.27699557 264.66922152 C743.38651687 201.45379008 742.00322107 138.36938336 701.76539612 86.12698364 C701.00742737 85.13827271 700.24945862 84.14956177 699.46852112 83.13088989 C695.26774386 77.84925571 690.76505646 72.84606952 686.20289612 67.87698364 C685.42571228 67.02680664 685.42571228 67.02680664 684.63282776 66.15945435 C671.61119271 52.18337525 655.54495874 40.19381965 638.76539612 31.12698364 C637.80319153 30.60563843 637.80319153 30.60563843 636.82154846 30.07376099 C595.41597955 7.92754514 548.66444198 5.80565664 502.6474762 4.58428955 C501.44280085 4.55212981 501.44280085 4.55212981 500.21378863 4.51932038 C479.64893137 3.98575243 459.08537703 3.98369662 438.51491308 3.99625897 C432.90062186 3.99856541 427.28633346 3.99500797 421.67204285 3.99227905 C410.73032514 3.98787733 399.78861437 3.98877258 388.84689641 3.99169169 C379.93890022 3.99396801 371.03090595 3.9942487 362.12290955 3.99316788 C360.8457113 3.99301464 359.56851304 3.99286141 358.25261182 3.99270353 C355.6564459 3.99238375 353.06027998 3.99205953 350.46411407 3.99173094 C326.91812504 3.98897315 303.37214062 3.99181271 279.82615237 3.99707354 C258.4312238 4.00181747 237.03630119 4.00139277 215.64137268 3.99661255 C191.48246173 3.99123253 167.32355501 3.98916709 143.16464329 3.99222481 C140.57905642 3.9925433 137.99346956 3.99285767 135.40788269 3.99316788 C133.5006045 3.99339929 133.5006045 3.99339929 131.55479544 3.99363538 C122.6775156 3.99449181 113.80023789 3.99305667 104.92295837 3.99068832 C94.07591099 3.98785754 83.22887083 3.98869669 72.38182425 3.99396907 C66.868123 3.99656247 61.35443369 3.99768713 55.84073257 3.99431992 C35.524994 3.98298714 15.22030386 4.04141587 -5.08934021 4.5803833 Z M-93.23460388 7.12698364 C-89.23460388 8.12698364 -89.23460388 8.12698364 -89.23460388 8.12698364 Z M-91.23460388 992.12698364 C-87.23460388 993.12698364 -87.23460388 993.12698364 -87.23460388 993.12698364 Z M584.76539612 992.12698364 C588.76539612 993.12698364 588.76539612 993.12698364 588.76539612 993.12698364 Z " fill="#EAEAEA" transform="translate(251.23460388183594,-0.126983642578125)"/>
<path d="M0 0 C2.97 0 5.94 0 9 0 C9 0.33 9 0.66 9 1 C6.03 1 3.06 1 0 1 C0 0.67 0 0.34 0 0 Z " fill="#ECECEC" transform="translate(204,999)"/>
<path d="M0 0 C2.64 0 5.28 0 8 0 C8 0.33 8 0.66 8 1 C5.36 1 2.72 1 0 1 C0 0.67 0 0.34 0 0 Z " fill="#EEEEEE" transform="translate(787,999)"/>
<path d="M0 0 C0.33 0 0.66 0 1 0 C1 2.64 1 5.28 1 8 C0.67 8 0.34 8 0 8 C0 5.36 0 2.72 0 0 Z " fill="#EDEDED" transform="translate(999,787)"/>
<path d="M0 0 C0.33 0 0.66 0 1 0 C1 2.31 1 4.62 1 7 C0.67 7 0.34 7 0 7 C0 4.69 0 2.38 0 0 Z " fill="#EEEEEE" transform="translate(0,791)"/>
<path d="M0 0 C0.33 0 0.66 0 1 0 C1 2.31 1 4.62 1 7 C0.67 7 0.34 7 0 7 C0 4.69 0 2.38 0 0 Z " fill="#EBEBEB" transform="translate(999,205)"/>
<path d="M0 0 C0.33 0 0.66 0 1 0 C1 2.31 1 4.62 1 7 C0.67 7 0.34 7 0 7 C0 4.69 0 2.38 0 0 Z " fill="#ECECEC" transform="translate(0,201)"/>
<path d="M0 0 C2.31 0 4.62 0 7 0 C7 0.33 7 0.66 7 1 C4.69 1 2.38 1 0 1 C0 0.67 0 0.34 0 0 Z " fill="#EBEBEB" transform="translate(792,0)"/>
<path d="M0 0 C2.31 0 4.62 0 7 0 C7 0.33 7 0.66 7 1 C4.69 1 2.38 1 0 1 C0 0.67 0 0.34 0 0 Z " fill="#EBEBEB" transform="translate(201,0)"/>
<path d="M0 0 C1.98 0 3.96 0 6 0 C6 0.33 6 0.66 6 1 C4.02 1 2.04 1 0 1 C0 0.67 0 0.34 0 0 Z " fill="#C5C5C5" transform="translate(799,998)"/>
<path d="M0 0 C1.98 0 3.96 0 6 0 C6 0.33 6 0.66 6 1 C4.02 1 2.04 1 0 1 C0 0.67 0 0.34 0 0 Z " fill="#DBDBDB" transform="translate(813,2)"/>
<path d="M0 0 C1.98 0 3.96 0 6 0 C6 0.33 6 0.66 6 1 C4.02 1 2.04 1 0 1 C0 0.67 0 0.34 0 0 Z " fill="#EEEEEE" transform="translate(181,2)"/>
<path d="M0 0 C1.65 0 3.3 0 5 0 C5 0.33 5 0.66 5 1 C3.35 1 1.7 1 0 1 C0 0.67 0 0.34 0 0 Z " fill="#D3D3D3" transform="translate(195,998)"/>
<path d="M0 0 C1.65 0 3.3 0 5 0 C5 0.33 5 0.66 5 1 C3.35 1 1.7 1 0 1 C0 0.67 0 0.34 0 0 Z " fill="#EBEBEB" transform="translate(811,997)"/>
<path d="M0 0 C1.65 0 3.3 0 5 0 C5 0.33 5 0.66 5 1 C3.35 1 1.7 1 0 1 C0 0.67 0 0.34 0 0 Z " fill="#EBEBEB" transform="translate(184,997)"/>
<path d="M0 0 C1.65 0 3.3 0 5 0 C5 0.33 5 0.66 5 1 C3.35 1 1.7 1 0 1 C0 0.67 0 0.34 0 0 Z " fill="#EDEDED" transform="translate(825,995)"/>
<path d="M0 0 C1.65 0 3.3 0 5 0 C5 0.33 5 0.66 5 1 C3.35 1 1.7 1 0 1 C0 0.67 0 0.34 0 0 Z " fill="#D0D0D0" transform="translate(170,995)"/>
<path d="M0 0 C1.32 0.33 2.64 0.66 4 1 C2.68 1.33 1.36 1.66 0 2 C0 1.34 0 0.68 0 0 Z " fill="#EAEAEA" transform="translate(842,992)"/>
<path d="M0 0 C0.33 0 0.66 0 1 0 C1 1.65 1 3.3 1 5 C0.67 5 0.34 5 0 5 C0 3.35 0 1.7 0 0 Z " fill="#EAEAEA" transform="translate(993,836)"/>
<path d="M0 0 C0.33 0 0.66 0 1 0 C1 1.65 1 3.3 1 5 C0.67 5 0.34 5 0 5 C0 3.35 0 1.7 0 0 Z " fill="#ECECEC" transform="translate(4,827)"/>
<path d="M0 0 C0.33 0 0.66 0 1 0 C1 1.65 1 3.3 1 5 C0.67 5 0.34 5 0 5 C0 3.35 0 1.7 0 0 Z " fill="#EAEAEA" transform="translate(995,825)"/>
<path d="M0 0 C0.33 0 0.66 0 1 0 C1 1.65 1 3.3 1 5 C0.67 5 0.34 5 0 5 C0 3.35 0 1.7 0 0 Z " fill="#ECECEC" transform="translate(2,813)"/>
<path d="M0 0 C0.33 0 0.66 0 1 0 C1 1.65 1 3.3 1 5 C0.67 5 0.34 5 0 5 C0 3.35 0 1.7 0 0 Z " fill="#EAEAEA" transform="translate(997,811)"/>
<path d="M0 0 C0.33 0 0.66 0 1 0 C1 1.65 1 3.3 1 5 C0.67 5 0.34 5 0 5 C0 3.35 0 1.7 0 0 Z " fill="#EDEDED" transform="translate(997,184)"/>
<path d="M0 0 C0.33 0 0.66 0 1 0 C1 1.65 1 3.3 1 5 C0.67 5 0.34 5 0 5 C0 3.35 0 1.7 0 0 Z " fill="#EAEAEA" transform="translate(4,168)"/>
<path d="M0 0 C0.66 0.66 1.32 1.32 2 2 C0.68 1.67 -0.64 1.34 -2 1 C-1.34 0.67 -0.68 0.34 0 0 Z " fill="#E9E9E9" transform="translate(137,11)"/>
<path d="M0 0 C1.485 0.99 1.485 0.99 3 2 C1.68 1.67 0.36 1.34 -1 1 C-0.67 0.67 -0.34 0.34 0 0 Z " fill="#DDDDDD" transform="translate(855,9)"/>
<path d="M0 0 C0.33 0.66 0.66 1.32 1 2 C-0.32 1.67 -1.64 1.34 -3 1 C-2.01 0.67 -1.02 0.34 0 0 Z " fill="#E9E9E9" transform="translate(152,7)"/>
<path d="M0 0 C1.65 0 3.3 0 5 0 C5 0.33 5 0.66 5 1 C3.35 1 1.7 1 0 1 C0 0.67 0 0.34 0 0 Z " fill="#EAEAEA" transform="translate(827,4)"/>
<path d="M0 0 C1.65 0 3.3 0 5 0 C5 0.33 5 0.66 5 1 C3.35 1 1.7 1 0 1 C0 0.67 0 0.34 0 0 Z " fill="#EEEEEE" transform="translate(168,4)"/>
<path d="M0 0 C4 1 4 1 4 1 Z " fill="#EBEBEB" transform="translate(818,996)"/>
<path d="M0 0 C4 1 4 1 4 1 Z " fill="#ECECEC" transform="translate(177,996)"/>
<path d="M0 0 C4 1 4 1 4 1 Z " fill="#ECECEC" transform="translate(832,994)"/>
<path d="M0 0 C4 1 4 1 4 1 Z " fill="#EBEBEB" transform="translate(164,994)"/>
<path d="M0 0 C0.99 0 1.98 0 3 0 C2.67 0.66 2.34 1.32 2 2 C1.34 1.34 0.68 0.68 0 0 Z " fill="#EEEEEE" transform="translate(155,992)"/>
<path d="M0 0 C4 1 4 1 4 1 Z " fill="#EAEAEA" transform="translate(846,991)"/>
<path d="M0 0 C0.99 0 1.98 0 3 0 C2.67 0.66 2.34 1.32 2 2 C1.34 1.34 0.68 0.68 0 0 Z " fill="#EBEBEB" transform="translate(143,989)"/>
<path d="M0 0 C1 4 1 4 1 4 Z " fill="#EBEBEB" transform="translate(6,838)"/>
<path d="M0 0 C1 4 1 4 1 4 Z " fill="#EAEAEA" transform="translate(1,803)"/>
<path d="M0 0 C1 4 1 4 1 4 Z " fill="#EAEAEA" transform="translate(998,800)"/>
<path d="M0 0 C1 4 1 4 1 4 Z " fill="#EBEBEB" transform="translate(998,196)"/>
<path d="M0 0 C1 4 1 4 1 4 Z " fill="#EBEBEB" transform="translate(1,193)"/>
<path d="M0 0 C1 4 1 4 1 4 Z " fill="#ECECEC" transform="translate(2,182)"/>
<path d="M0 0 C1 4 1 4 1 4 Z " fill="#EBEBEB" transform="translate(995,170)"/>
<path d="M0 0 C1 4 1 4 1 4 Z " fill="#EBEBEB" transform="translate(993,159)"/>
<path d="M0 0 C1 4 1 4 1 4 Z " fill="#EAEAEA" transform="translate(6,158)"/>
<path d="M0 0 C1 4 1 4 1 4 Z " fill="#E9E9E9" transform="translate(991,150)"/>
<path d="M0 0 C1 4 1 4 1 4 Z " fill="#EAEAEA" transform="translate(8,149)"/>
<path d="M0 0 C0.33 0.66 0.66 1.32 1 2 C0.01 1.67 -0.98 1.34 -2 1 C-1.34 0.67 -0.68 0.34 0 0 Z " fill="#EEEEEE" transform="translate(144,9)"/>
<path d="M0 0 C4 1 4 1 4 1 Z " fill="#EEEEEE" transform="translate(847,8)"/>
<path d="M0 0 C1.485 0.99 1.485 0.99 3 2 C2.01 2 1.02 2 0 2 C0 1.34 0 0.68 0 0 Z " fill="#E9E9E9" transform="translate(843,6)"/>
<path d="M0 0 C4 1 4 1 4 1 Z " fill="#E6E6E6" transform="translate(821,3)"/>
<path d="M0 0 C4 1 4 1 4 1 Z " fill="#EAEAEA" transform="translate(803,1)"/>
<path d="M0 0 C4 1 4 1 4 1 Z " fill="#EAEAEA" transform="translate(193,1)"/>
<path d="M0 0 C3 1 3 1 3 1 Z " fill="#EEEEEE" transform="translate(850,990)"/>
<path d="M0 0 C3 1 3 1 3 1 Z " fill="#ECECEC" transform="translate(857,988)"/>
<path d="M0 0 C0.66 0 1.32 0 2 0 C1.67 0.66 1.34 1.32 1 2 C0.67 1.34 0.34 0.68 0 0 Z " fill="#E8E8E8" transform="translate(860,987)"/>
<path d="M0 0 C0.66 0 1.32 0 2 0 C1.67 0.66 1.34 1.32 1 2 C0.67 1.34 0.34 0.68 0 0 Z " fill="#E9E9E9" transform="translate(137,987)"/>
<path d="M0 0 C0.66 0 1.32 0 2 0 C1.67 0.66 1.34 1.32 1 2 C0.67 1.34 0.34 0.68 0 0 Z " fill="#C1C1C1" transform="translate(134,986)"/>
<path d="M0 0 C0.66 0 1.32 0 2 0 C1.67 0.66 1.34 1.32 1 2 C0.67 1.34 0.34 0.68 0 0 Z " fill="#ECECEC" transform="translate(866,985)"/>
<path d="M0 0 C0.99 0.495 0.99 0.495 2 1 C1.01 1.495 1.01 1.495 0 2 C0 1.34 0 0.68 0 0 Z " fill="#EAEAEA" transform="translate(869,984)"/>
<path d="M0 0 C0.66 0 1.32 0 2 0 C1.67 0.66 1.34 1.32 1 2 C0.67 1.34 0.34 0.68 0 0 Z " fill="#E0E0E0" transform="translate(119,980)"/>
<path d="" fill="#EAEAEA" transform="translate(0,0)"/>
<path d="" fill="#EAEAEA" transform="translate(0,0)"/>
<path d="" fill="#EFEFEF" transform="translate(0,0)"/>
<path d="" fill="#E7E7E7" transform="translate(0,0)"/>
<path d="" fill="#E6E6E6" transform="translate(0,0)"/>
<path d="" fill="#EAEAEA" transform="translate(0,0)"/>
<path d="" fill="#EBEBEB" transform="translate(0,0)"/>
<path d="" fill="#E9E9E9" transform="translate(0,0)"/>
<path d="" fill="#EEEEEE" transform="translate(0,0)"/>
<path d="M0 0 C0.33 0.66 0.66 1.32 1 2 C0.34 1.67 -0.32 1.34 -1 1 C-0.67 0.67 -0.34 0.34 0 0 Z " fill="#E9E9E9" transform="translate(115,20)"/>
<path d="M0 0 C0.66 0.66 1.32 1.32 2 2 C1.34 2 0.68 2 0 2 C0 1.34 0 0.68 0 0 Z " fill="#ECECEC" transform="translate(875,16)"/>
<path d="M0 0 C0.33 0.66 0.66 1.32 1 2 C0.34 1.67 -0.32 1.34 -1 1 C-0.67 0.67 -0.34 0.34 0 0 Z " fill="#EAEAEA" transform="translate(124,16)"/>
<path d="M0 0 C0.66 0.66 1.32 1.32 2 2 C1.34 2 0.68 2 0 2 C0 1.34 0 0.68 0 0 Z " fill="#EEEEEE" transform="translate(870,14)"/>
<path d="M0 0 C0.33 0.66 0.66 1.32 1 2 C0.34 1.67 -0.32 1.34 -1 1 C-0.67 0.67 -0.34 0.34 0 0 Z " fill="#EBEBEB" transform="translate(868,13)"/>
<path d="M0 0 C0.66 0.66 1.32 1.32 2 2 C1.34 2 0.68 2 0 2 C0 1.34 0 0.68 0 0 Z " fill="#E9E9E9" transform="translate(131,13)"/>
<path d="M0 0 C0.33 0.66 0.66 1.32 1 2 C0.34 1.67 -0.32 1.34 -1 1 C-0.67 0.67 -0.34 0.34 0 0 Z " fill="#ECECEC" transform="translate(129,14)"/>
<path d="M0 0 C0.66 0.66 1.32 1.32 2 2 C1.34 2 0.68 2 0 2 C0 1.34 0 0.68 0 0 Z " fill="#EBEBEB" transform="translate(861,11)"/>
<path d="M0 0 C3 1 3 1 3 1 Z " fill="#EDEDED" transform="translate(851,9)"/>
<path d="M0 0 C0.33 0.66 0.66 1.32 1 2 C0.34 1.67 -0.32 1.34 -1 1 C-0.67 0.67 -0.34 0.34 0 0 Z " fill="#EBEBEB" transform="translate(147,8)"/>
<path d="M0 0 C2 1 2 1 2 1 Z " fill="#E8E8E8" transform="translate(147,990)"/>
<path d="M0 0 C2 1 2 1 2 1 Z " fill="#EBEBEB" transform="translate(140,988)"/>
<path d="M0 0 C2 1 2 1 2 1 Z " fill="#EBEBEB" transform="translate(864,986)"/>
<path d="" fill="#ECECEC" transform="translate(0,0)"/>
<path d="" fill="#ECECEC" transform="translate(0,0)"/>
<path d="" fill="#EAEAEA" transform="translate(0,0)"/>
<path d="" fill="#EEEEEE" transform="translate(0,0)"/>
<path d="" fill="#ECECEC" transform="translate(0,0)"/>
<path d="" fill="#ECECEC" transform="translate(0,0)"/>
<path d="" fill="#DCDCDC" transform="translate(0,0)"/>
<path d="" fill="#F5F5F5" transform="translate(0,0)"/>
<path d="" fill="#E8E8E8" transform="translate(0,0)"/>
<path d="" fill="#EBEBEB" transform="translate(0,0)"/>
<path d="" fill="#EEEEEE" transform="translate(0,0)"/>
<path d="" fill="#E9E9E9" transform="translate(0,0)"/>
<path d="" fill="#E8E8E8" transform="translate(0,0)"/>
<path d="" fill="#E3E3E3" transform="translate(0,0)"/>
<path d="" fill="#E6E6E6" transform="translate(0,0)"/>
<path d="" fill="#F7F7F7" transform="translate(0,0)"/>
<path d="" fill="#DBDBDB" transform="translate(0,0)"/>
<path d="" fill="#EDEDED" transform="translate(0,0)"/>
<path d="" fill="#E7E7E7" transform="translate(0,0)"/>
<path d="" fill="#E7E7E7" transform="translate(0,0)"/>
<path d="" fill="#EAEAEA" transform="translate(0,0)"/>
<path d="" fill="#EBEBEB" transform="translate(0,0)"/>
<path d="" fill="#EBEBEB" transform="translate(0,0)"/>
<path d="" fill="#EAEAEA" transform="translate(0,0)"/>
<path d="" fill="#EBEBEB" transform="translate(0,0)"/>
<path d="" fill="#EBEBEB" transform="translate(0,0)"/>
<path d="" fill="#E9E9E9" transform="translate(0,0)"/>
<path d="" fill="#E8E8E8" transform="translate(0,0)"/>
<path d="" fill="#E9E9E9" transform="translate(0,0)"/>
<path d="" fill="#D3D3D3" transform="translate(0,0)"/>
<path d="" fill="#EAEAEA" transform="translate(0,0)"/>
<path d="" fill="#F4F4F4" transform="translate(0,0)"/>
<path d="" fill="#E5E5E5" transform="translate(0,0)"/>
<path d="" fill="#ECECEC" transform="translate(0,0)"/>
<path d="" fill="#EBEBEB" transform="translate(0,0)"/>
<path d="" fill="#EAEAEA" transform="translate(0,0)"/>
<path d="" fill="#ECECEC" transform="translate(0,0)"/>
<path d="" fill="#D7D7D7" transform="translate(0,0)"/>
<path d="" fill="#E7E7E7" transform="translate(0,0)"/>
<path d="" fill="#E9E9E9" transform="translate(0,0)"/>
<path d="" fill="#ECECEC" transform="translate(0,0)"/>
<path d="" fill="#EAEAEA" transform="translate(0,0)"/>
<path d="" fill="#EAEAEA" transform="translate(0,0)"/>
<path d="" fill="#F0F0F0" transform="translate(0,0)"/>
<path d="" fill="#F4F4F4" transform="translate(0,0)"/>
<path d="" fill="#EDEDED" transform="translate(0,0)"/>
<path d="" fill="#F5F5F5" transform="translate(0,0)"/>
<path d="" fill="#EAEAEA" transform="translate(0,0)"/>
<path d="" fill="#EDEDED" transform="translate(0,0)"/>
<path d="" fill="#ECECEC" transform="translate(0,0)"/>
<path d="M0 0 C2 1 2 1 2 1 Z " fill="#EBEBEB" transform="translate(865,13)"/>
<path d="M0 0 C2 1 2 1 2 1 Z " fill="#ECECEC" transform="translate(133,13)"/>
<path d="M0 0 C2 1 2 1 2 1 Z " fill="#EBEBEB" transform="translate(858,11)"/>
<path d="M0 0 C2 1 2 1 2 1 Z " fill="#E9E9E9" transform="translate(139,11)"/>
<path d="M0 0 C2 1 2 1 2 1 Z " fill="#EAEAEA" transform="translate(164,5)"/>
<path d="" fill="#EBEBEB" transform="translate(0,0)"/>
<path d="" fill="#9A9A9A" transform="translate(0,0)"/>
<path d="" fill="#E7E7E7" transform="translate(0,0)"/>
<path d="" fill="#EFEFEF" transform="translate(0,0)"/>
<path d="" fill="#EBEBEB" transform="translate(0,0)"/>
<path d="" fill="#E9E9E9" transform="translate(0,0)"/>
<path d="" fill="#EDEDED" transform="translate(0,0)"/>
<path d="" fill="#F0F0F0" transform="translate(0,0)"/>
<path d="" fill="#E9E9E9" transform="translate(0,0)"/>
<path d="" fill="#EEEEEE" transform="translate(0,0)"/>
<path d="" fill="#EDEDED" transform="translate(0,0)"/>
<path d="" fill="#EBEBEB" transform="translate(0,0)"/>
<path d="" fill="#E3E3E3" transform="translate(0,0)"/>
<path d="" fill="#EBEBEB" transform="translate(0,0)"/>
<path d="" fill="#FFFFFF" transform="translate(0,0)"/>
<path d="" fill="#EBEBEB" transform="translate(0,0)"/>
<path d="" fill="#E3E3E3" transform="translate(0,0)"/>
<path d="" fill="#E3E3E3" transform="translate(0,0)"/>
<path d="" fill="#EBEBEB" transform="translate(0,0)"/>
<path d="" fill="#F9F9F9" transform="translate(0,0)"/>
<path d="" fill="#EBEBEB" transform="translate(0,0)"/>
<path d="" fill="#E0E0E0" transform="translate(0,0)"/>
<path d="" fill="#E1E1E1" transform="translate(0,0)"/>
<path d="" fill="#ECECEC" transform="translate(0,0)"/>
<path d="" fill="#EBEBEB" transform="translate(0,0)"/>
<path d="" fill="#EBEBEB" transform="translate(0,0)"/>
<path d="" fill="#E9E9E9" transform="translate(0,0)"/>
<path d="" fill="#EBEBEB" transform="translate(0,0)"/>
<path d="" fill="#E9E9E9" transform="translate(0,0)"/>
<path d="" fill="#EBEBEB" transform="translate(0,0)"/>
<path d="" fill="#EBEBEB" transform="translate(0,0)"/>
<path d="" fill="#EBEBEB" transform="translate(0,0)"/>
<path d="" fill="#E8E8E8" transform="translate(0,0)"/>
<path d="" fill="#EBEBEB" transform="translate(0,0)"/>
<path d="" fill="#EAEAEA" transform="translate(0,0)"/>
<path d="" fill="#EBEBEB" transform="translate(0,0)"/>
<path d="" fill="#E7E7E7" transform="translate(0,0)"/>
<path d="" fill="#ECECEC" transform="translate(0,0)"/>
<path d="" fill="#EBEBEB" transform="translate(0,0)"/>
<path d="" fill="#EAEAEA" transform="translate(0,0)"/>
<path d="" fill="#EDEDED" transform="translate(0,0)"/>
<path d="" fill="#E9E9E9" transform="translate(0,0)"/>
<path d="" fill="#E9E9E9" transform="translate(0,0)"/>
<path d="" fill="#ECECEC" transform="translate(0,0)"/>
<path d="" fill="#EBEBEB" transform="translate(0,0)"/>
<path d="" fill="#EBEBEB" transform="translate(0,0)"/>
<path d="" fill="#E2E2E2" transform="translate(0,0)"/>
<path d="" fill="#F4F4F4" transform="translate(0,0)"/>
<path d="" fill="#E4E4E4" transform="translate(0,0)"/>
<path d="" fill="#F2F2F2" transform="translate(0,0)"/>
<path d="" fill="#FFFFFF" transform="translate(0,0)"/>
<path d="" fill="#E4E4E4" transform="translate(0,0)"/>
<path d="" fill="#F4F4F4" transform="translate(0,0)"/>
<path d="" fill="#F3F3F3" transform="translate(0,0)"/>
<path d="" fill="#EBEBEB" transform="translate(0,0)"/>
<path d="" fill="#DDDDDD" transform="translate(0,0)"/>
<path d="" fill="#E3E3E3" transform="translate(0,0)"/>
<path d="" fill="#ECECEC" transform="translate(0,0)"/>
<path d="" fill="#EBEBEB" transform="translate(0,0)"/>
<path d="" fill="#EDEDED" transform="translate(0,0)"/>
<path d="" fill="#F0F0F0" transform="translate(0,0)"/>
<path d="" fill="#EBEBEB" transform="translate(0,0)"/>
<path d="" fill="#E6E6E6" transform="translate(0,0)"/>
<path d="" fill="#EBEBEB" transform="translate(0,0)"/>
<path d="" fill="#EBEBEB" transform="translate(0,0)"/>
<path d="" fill="#EAEAEA" transform="translate(0,0)"/>
<path d="" fill="#E5E5E5" transform="translate(0,0)"/>
<path d="" fill="#C9C9C9" transform="translate(0,0)"/>
<path d="" fill="#E7E7E7" transform="translate(0,0)"/>
<path d="" fill="#EBEBEB" transform="translate(0,0)"/>
<path d="" fill="#EEEEEE" transform="translate(0,0)"/>
<path d="" fill="#E8E8E8" transform="translate(0,0)"/>
<path d="" fill="#E6E6E6" transform="translate(0,0)"/>
<path d="" fill="#EBEBEB" transform="translate(0,0)"/>
<path d="" fill="#E5E5E5" transform="translate(0,0)"/>
<path d="" fill="#EBEBEB" transform="translate(0,0)"/>
<path d="" fill="#EDEDED" transform="translate(0,0)"/>
<path d="" fill="#EBEBEB" transform="translate(0,0)"/>
<path d="" fill="#ECECEC" transform="translate(0,0)"/>
<path d="" fill="#E4E4E4" transform="translate(0,0)"/>
<path d="" fill="#FFFFFF" transform="translate(0,0)"/>
<path d="" fill="#E3E3E3" transform="translate(0,0)"/>
<path d="" fill="#EDEDED" transform="translate(0,0)"/>
<path d="" fill="#F8F8F8" transform="translate(0,0)"/>
<path d="" fill="#C7C7C7" transform="translate(0,0)"/>
<path d="" fill="#E2E2E2" transform="translate(0,0)"/>
<path d="" fill="#E7E7E7" transform="translate(0,0)"/>
<path d="" fill="#EBEBEB" transform="translate(0,0)"/>
<path d="" fill="#E5E5E5" transform="translate(0,0)"/>
<path d="" fill="#ECECEC" transform="translate(0,0)"/>
<path d="" fill="#E8E8E8" transform="translate(0,0)"/>
<path d="" fill="#DADADA" transform="translate(0,0)"/>
<path d="" fill="#E4E4E4" transform="translate(0,0)"/>
<path d="" fill="#EBEBEB" transform="translate(0,0)"/>
<path d="" fill="#E6E6E6" transform="translate(0,0)"/>
<path d="" fill="#E8E8E8" transform="translate(0,0)"/>
<path d="" fill="#E7E7E7" transform="translate(0,0)"/>
<path d="" fill="#D3D3D3" transform="translate(0,0)"/>
<path d="" fill="#EBEBEB" transform="translate(0,0)"/>
<path d="" fill="#E8E8E8" transform="translate(0,0)"/>
<path d="" fill="#F5F5F5" transform="translate(0,0)"/>
<path d="" fill="#E7E7E7" transform="translate(0,0)"/>
<path d="" fill="#EAEAEA" transform="translate(0,0)"/>
<path d="" fill="#F0F0F0" transform="translate(0,0)"/>
<path d="" fill="#E9E9E9" transform="translate(0,0)"/>
<path d="" fill="#E6E6E6" transform="translate(0,0)"/>
<path d="" fill="#EAEAEA" transform="translate(0,0)"/>
<path d="" fill="#EFEFEF" transform="translate(0,0)"/>
<path d="" fill="#EDEDED" transform="translate(0,0)"/>
<path d="" fill="#EAEAEA" transform="translate(0,0)"/>
<path d="" fill="#FFFFFF" transform="translate(0,0)"/>
<path d="" fill="#E7E7E7" transform="translate(0,0)"/>
<path d="" fill="#E9E9E9" transform="translate(0,0)"/>
<path d="" fill="#EBEBEB" transform="translate(0,0)"/>
<path d="" fill="#E6E6E6" transform="translate(0,0)"/>
<path d="" fill="#EDEDED" transform="translate(0,0)"/>
<path d="" fill="#E8E8E8" transform="translate(0,0)"/>
<path d="" fill="#EBEBEB" transform="translate(0,0)"/>
<path d="" fill="#E7E7E7" transform="translate(0,0)"/>
<path d="" fill="#EBEBEB" transform="translate(0,0)"/>
<path d="" fill="#E6E6E6" transform="translate(0,0)"/>
<path d="" fill="#EBEBEB" transform="translate(0,0)"/>
<path d="" fill="#EAEAEA" transform="translate(0,0)"/>
<path d="" fill="#FFFFFF" transform="translate(0,0)"/>
<path d="" fill="#EDEDED" transform="translate(0,0)"/>
<path d="" fill="#EAEAEA" transform="translate(0,0)"/>
<path d="" fill="#E8E8E8" transform="translate(0,0)"/>
<path d="" fill="#EAEAEA" transform="translate(0,0)"/>
<path d="" fill="#E7E7E7" transform="translate(0,0)"/>
<path d="" fill="#E9E9E9" transform="translate(0,0)"/>
<path d="" fill="#EBEBEB" transform="translate(0,0)"/>
<path d="" fill="#EBEBEB" transform="translate(0,0)"/>
<path d="" fill="#EAEAEA" transform="translate(0,0)"/>
<path d="" fill="#E9E9E9" transform="translate(0,0)"/>
<path d="" fill="#EEEEEE" transform="translate(0,0)"/>
<path d="" fill="#EBEBEB" transform="translate(0,0)"/>
<path d="" fill="#EAEAEA" transform="translate(0,0)"/>
<path d="" fill="#EAEAEA" transform="translate(0,0)"/>
<path d="" fill="#EAEAEA" transform="translate(0,0)"/>
<path d="" fill="#EAEAEA" transform="translate(0,0)"/>
<path d="" fill="#E8E8E8" transform="translate(0,0)"/>
<path d="" fill="#EAEAEA" transform="translate(0,0)"/>
<path d="" fill="#EAEAEA" transform="translate(0,0)"/>
<path d="" fill="#ECECEC" transform="translate(0,0)"/>
<path d="" fill="#EAEAEA" transform="translate(0,0)"/>
<path d="" fill="#EAEAEA" transform="translate(0,0)"/>
<path d="" fill="#EAEAEA" transform="translate(0,0)"/>
<path d="" fill="#EAEAEA" transform="translate(0,0)"/>
<path d="" fill="#EAEAEA" transform="translate(0,0)"/>
<path d="" fill="#E9E9E9" transform="translate(0,0)"/>
<path d="" fill="#E9E9E9" transform="translate(0,0)"/>
<path d="" fill="#EAEAEA" transform="translate(0,0)"/>
<path d="" fill="#EAEAEA" transform="translate(0,0)"/>
<path d="" fill="#EAEAEA" transform="translate(0,0)"/>
<path d="" fill="#F1F1F1" transform="translate(0,0)"/>
<path d="" fill="#EAEAEA" transform="translate(0,0)"/>
<path d="" fill="#EDEDED" transform="translate(0,0)"/>
<path d="" fill="#EAEAEA" transform="translate(0,0)"/>
<path d="" fill="#E8E8E8" transform="translate(0,0)"/>
<path d="" fill="#F1F1F1" transform="translate(0,0)"/>
<path d="" fill="#EDEDED" transform="translate(0,0)"/>
<path d="" fill="#EAEAEA" transform="translate(0,0)"/>
<path d="" fill="#E8E8E8" transform="translate(0,0)"/>
<path d="" fill="#FFFFFF" transform="translate(0,0)"/>
<path d="" fill="#EDEDED" transform="translate(0,0)"/>
<path d="" fill="#EBEBEB" transform="translate(0,0)"/>
<path d="" fill="#EFEFEF" transform="translate(0,0)"/>
<path d="" fill="#E7E7E7" transform="translate(0,0)"/>
<path d="" fill="#E4E4E4" transform="translate(0,0)"/>
<path d="" fill="#E9E9E9" transform="translate(0,0)"/>
<path d="" fill="#EEEEEE" transform="translate(0,0)"/>
<path d="" fill="#ECECEC" transform="translate(0,0)"/>
<path d="" fill="#EBEBEB" transform="translate(0,0)"/>
<path d="" fill="#CDCDCD" transform="translate(0,0)"/>
<path d="" fill="#E4E4E4" transform="translate(0,0)"/>
<path d="" fill="#EBEBEB" transform="translate(0,0)"/>
<path d="" fill="#EAEAEA" transform="translate(0,0)"/>
<path d="" fill="#E7E7E7" transform="translate(0,0)"/>
<path d="" fill="#E3E3E3" transform="translate(0,0)"/>
<path d="" fill="#EAEAEA" transform="translate(0,0)"/>
<path d="" fill="#F4F4F4" transform="translate(0,0)"/>
<path d="" fill="#E6E6E6" transform="translate(0,0)"/>
<path d="" fill="#E9E9E9" transform="translate(0,0)"/>
<path d="" fill="#DEDEDE" transform="translate(0,0)"/>
<path d="" fill="#E9E9E9" transform="translate(0,0)"/>
<path d="" fill="#EDEDED" transform="translate(0,0)"/>
<path d="" fill="#EBEBEB" transform="translate(0,0)"/>
<path d="" fill="#CFCFCF" transform="translate(0,0)"/>
<path d="" fill="#F7F7F7" transform="translate(0,0)"/>
<path d="" fill="#EAEAEA" transform="translate(0,0)"/>
<path d="" fill="#CDCDCD" transform="translate(0,0)"/>
<path d="" fill="#E8E8E8" transform="translate(0,0)"/>
<path d="" fill="#E4E4E4" transform="translate(0,0)"/>
<path d="" fill="#CCCCCC" transform="translate(0,0)"/>
<path d="" fill="#C9C9C9" transform="translate(0,0)"/>
<path d="" fill="#E3E3E3" transform="translate(0,0)"/>
<path d="" fill="#000000" transform="translate(0,0)"/>
<path d="" fill="#545454" transform="translate(0,0)"/>
<path d="" fill="#ECECEC" transform="translate(0,0)"/>
<path d="" fill="#EBEBEB" transform="translate(0,0)"/>
<path d="" fill="#E5E5E5" transform="translate(0,0)"/>
<path d="" fill="#E2E2E2" transform="translate(0,0)"/>
<path d="" fill="#F0F0F0" transform="translate(0,0)"/>
<path d="" fill="#E9E9E9" transform="translate(0,0)"/>
<path d="" fill="#ECECEC" transform="translate(0,0)"/>
<path d="" fill="#EEEEEE" transform="translate(0,0)"/>
<path d="" fill="#EAEAEA" transform="translate(0,0)"/>
<path d="" fill="#EAEAEA" transform="translate(0,0)"/>
<path d="" fill="#EAEAEA" transform="translate(0,0)"/>
<path d="" fill="#EBEBEB" transform="translate(0,0)"/>
<path d="" fill="#F6F6F6" transform="translate(0,0)"/>
<path d="" fill="#D8D8D8" transform="translate(0,0)"/>
<path d="" fill="#CECECE" transform="translate(0,0)"/>
<path d="" fill="#F1F1F1" transform="translate(0,0)"/>
<path d="" fill="#D9D9D9" transform="translate(0,0)"/>
<path d="" fill="#E9E9E9" transform="translate(0,0)"/>
<path d="" fill="#C8C8C8" transform="translate(0,0)"/>
<path d="" fill="#D9D9D9" transform="translate(0,0)"/>
<path d="" fill="#6B6B6B" transform="translate(0,0)"/>
<path d="" fill="#E5E5E5" transform="translate(0,0)"/>
<path d="" fill="#EBEBEB" transform="translate(0,0)"/>
<path d="" fill="#E4E4E4" transform="translate(0,0)"/>
<path d="" fill="#EBEBEB" transform="translate(0,0)"/>
<path d="" fill="#E3E3E3" transform="translate(0,0)"/>
<path d="" fill="#EBEBEB" transform="translate(0,0)"/>
<path d="" fill="#F6F6F6" transform="translate(0,0)"/>
<path d="" fill="#EBEBEB" transform="translate(0,0)"/>
<path d="" fill="#EAEAEA" transform="translate(0,0)"/>
<path d="" fill="#D8D8D8" transform="translate(0,0)"/>
<path d="" fill="#DFDFDF" transform="translate(0,0)"/>
<path d="" fill="#E7E7E7" transform="translate(0,0)"/>
<path d="" fill="#EBEBEB" transform="translate(0,0)"/>
<path d="" fill="#EBEBEB" transform="translate(0,0)"/>
<path d="" fill="#ECECEC" transform="translate(0,0)"/>
<path d="" fill="#EBEBEB" transform="translate(0,0)"/>
<path d="" fill="#EBEBEB" transform="translate(0,0)"/>
<path d="" fill="#E9E9E9" transform="translate(0,0)"/>
<path d="" fill="#EBEBEB" transform="translate(0,0)"/>
<path d="" fill="#EAEAEA" transform="translate(0,0)"/>
<path d="" fill="#E8E8E8" transform="translate(0,0)"/>
<path d="" fill="#EBEBEB" transform="translate(0,0)"/>
<path d="" fill="#EAEAEA" transform="translate(0,0)"/>
<path d="" fill="#EBEBEB" transform="translate(0,0)"/>
<path d="" fill="#E8E8E8" transform="translate(0,0)"/>
<path d="" fill="#E8E8E8" transform="translate(0,0)"/>
<path d="" fill="#EBEBEB" transform="translate(0,0)"/>
<path d="" fill="#E7E7E7" transform="translate(0,0)"/>
<path d="" fill="#E6E6E6" transform="translate(0,0)"/>
<path d="" fill="#E7E7E7" transform="translate(0,0)"/>
<path d="" fill="#E6E6E6" transform="translate(0,0)"/>
<path d="" fill="#EBEBEB" transform="translate(0,0)"/>
<path d="" fill="#E6E6E6" transform="translate(0,0)"/>
<path d="" fill="#E4E4E4" transform="translate(0,0)"/>
<path d="" fill="#F9F9F9" transform="translate(0,0)"/>
<path d="" fill="#E3E3E3" transform="translate(0,0)"/>
<path d="" fill="#EBEBEB" transform="translate(0,0)"/>
<path d="" fill="#EBEBEB" transform="translate(0,0)"/>
<path d="" fill="#E5E5E5" transform="translate(0,0)"/>
<path d="" fill="#EBEBEB" transform="translate(0,0)"/>
<path d="" fill="#E8E8E8" transform="translate(0,0)"/>
<path d="" fill="#EBEBEB" transform="translate(0,0)"/>
<path d="" fill="#FFFFFF" transform="translate(0,0)"/>
<path d="" fill="#E0E0E0" transform="translate(0,0)"/>
<path d="" fill="#EBEBEB" transform="translate(0,0)"/>
<path d="" fill="#EBEBEB" transform="translate(0,0)"/>
<path d="" fill="#EBEBEB" transform="translate(0,0)"/>
<path d="" fill="#E7E7E7" transform="translate(0,0)"/>
<path d="" fill="#EBEBEB" transform="translate(0,0)"/>
<path d="" fill="#EAEAEA" transform="translate(0,0)"/>
<path d="" fill="#E6E6E6" transform="translate(0,0)"/>
<path d="" fill="#EBEBEB" transform="translate(0,0)"/>
<path d="" fill="#EAEAEA" transform="translate(0,0)"/>
<path d="" fill="#EEEEEE" transform="translate(0,0)"/>
<path d="" fill="#EBEBEB" transform="translate(0,0)"/>
<path d="" fill="#EAEAEA" transform="translate(0,0)"/>
<path d="" fill="#F0F0F0" transform="translate(0,0)"/>
<path d="" fill="#E7E7E7" transform="translate(0,0)"/>
<path d="" fill="#E9E9E9" transform="translate(0,0)"/>
<path d="" fill="#E7E7E7" transform="translate(0,0)"/>
<path d="" fill="#EBEBEB" transform="translate(0,0)"/>
<path d="" fill="#999999" transform="translate(0,0)"/>
<path d="" fill="#E7E7E7" transform="translate(0,0)"/>
<path d="" fill="#E9E9E9" transform="translate(0,0)"/>
<path d="" fill="#E9E9E9" transform="translate(0,0)"/>
<path d="" fill="#F1F1F1" transform="translate(0,0)"/>
<path d="" fill="#E6E6E6" transform="translate(0,0)"/>
<path d="" fill="#EBEBEB" transform="translate(0,0)"/>
<path d="" fill="#FFFFFF" transform="translate(0,0)"/>
<path d="" fill="#EBEBEB" transform="translate(0,0)"/>
</svg>
